<?xml version="1.0" encoding="UTF-8"?>
<svg width="24px" height="24px" viewBox="0 0 24 24" version="1.1" xmlns="http://www.w3.org/2000/svg" xmlns:xlink="http://www.w3.org/1999/xlink">
    <!-- Generator: Sketch 52.6 (67491) - http://www.bohemiancoding.com/sketch -->
    <title>icon / icon-notice-mail-mute</title>
    <desc>Created with Sketch.</desc>
    <defs>
        <path d="M9.95921774,6.92027497 C11.1541594,6.19459295 12.6172757,6.20645009 13.8019282,6.95141642 C14.9865808,7.69638276 15.7145449,9.06238191 15.7138441,10.5390599 L15.713844,13.3078827 C15.713844,13.6901285 16.0017597,14 16.3569217,14 C16.7120837,14 16.9999993,13.6901285 16.9999993,13.3078827 L16.9999993,10.5394134 C17.0009336,8.57086294 16.0303149,6.74953074 14.4507781,5.7562423 C12.8712413,4.76295385 10.9204197,4.74714432 9.3271641,5.71472035 C9.0178472,5.90256693 8.90858634,6.32471926 9.08312313,6.65762398 C9.25765993,6.99052869 9.64990084,7.10812155 9.95921774,6.92027497 Z M13.6956391,15.6384481 L8.28340135,10.2262104 C8.25122185,10.4393856 8.23503392,10.6556381 8.23529412,10.8730165 L8.23529412,14.2768962 C8.23529412,14.7728921 8.10925445,15.2379158 7.88903432,15.6384481 L13.6956391,15.6384481 Z M15.6662314,15.7234224 C15.7628192,15.7797622 15.8442629,15.8613457 15.9025153,15.9597063 L19.8047379,19.8619288 C20.0650874,20.1222783 20.0650874,20.5443883 19.8047379,20.8047379 C19.5443883,21.0650874 19.1222783,21.0650874 18.8619288,20.8047379 L15.057191,17 L5.64705882,17 C4.78431373,17 4.78431373,15.6384481 5.64705882,15.6384481 C6.36178026,15.6384481 6.94117647,15.0288606 6.94117647,14.2768962 L6.94117698,10.8738744 C6.94047244,10.2856608 7.03033133,9.70312514 7.20564536,9.1484544 L4.19526215,6.13807119 C3.93491262,5.87772166 3.93491262,5.45561167 4.19526215,5.19526215 C4.45561167,4.93491262 4.87772166,4.93491262 5.13807119,5.19526215 L7.95791762,8.01510858 C8.09918385,7.98330761 8.25138891,8.00083467 8.38977283,8.07600051 C8.64472041,8.21448012 8.7752439,8.50649151 8.73194906,8.78914002 L15.6662309,15.7234219 Z M12.6336613,18.3326368 C12.8366681,18.0137935 13.2849374,17.905256 13.6348989,18.0902116 C13.9848603,18.2751672 14.1039907,18.6835769 13.900984,19.0024202 C13.5078234,19.61992 12.7835445,20 12,20 C11.2164555,20 10.4921766,19.61992 10.099016,19.0024202 C9.8960093,18.6835769 10.0151397,18.2751672 10.3651011,18.0902116 C10.7150626,17.905256 11.1633319,18.0137935 11.3663387,18.3326368 C11.4973922,18.53847 11.7388185,18.6651633 12,18.6651633 C12.2611815,18.6651633 12.5026078,18.53847 12.6336613,18.3326368 Z" id="path-1"></path>
    </defs>
    <g id="icon-/-icon-notice-mail-mute" stroke="none" stroke-width="1" fill="none" fill-rule="evenodd">
        <mask id="mask-2" fill="white">
            <use xlink:href="#path-1"></use>
        </mask>
        <use id="Combined-Shape" fill="#333333" fill-rule="nonzero" xlink:href="#path-1"></use>
    </g>
</svg>