<?xml version="1.0" encoding="UTF-8"?>
<svg width="24px" height="24px" viewBox="0 0 24 24" version="1.1" xmlns="http://www.w3.org/2000/svg" xmlns:xlink="http://www.w3.org/1999/xlink">
    <!-- Generator: Sketch 52.6 (67491) - http://www.bohemiancoding.com/sketch -->
    <title>icon / icon-dashboard</title>
    <desc>Created with Sketch.</desc>
    <defs>
        <path d="M6.4,6.4 L6.4,9.9 L9.9,9.9 L9.9,6.4 L6.4,6.4 Z M5.7,5 L10.6,5 C10.9865993,5 11.3,5.31340068 11.3,5.7 L11.3,10.6 C11.3,10.9865993 10.9865993,11.3 10.6,11.3 L5.7,11.3 C5.31340068,11.3 5,10.9865993 5,10.6 L5,5.7 C5,5.31340068 5.31340068,5 5.7,5 Z M13.4,5 L18.3,5 C18.6865993,5 19,5.31340068 19,5.7 L19,10.6 C19,10.9865993 18.6865993,11.3 18.3,11.3 L13.4,11.3 C13.0134007,11.3 12.7,10.9865993 12.7,10.6 L12.7,5.7 C12.7,5.31340068 13.0134007,5 13.4,5 Z M14.1,9.9 L17.6,9.9 L17.6,6.4 L14.1,6.4 L14.1,9.9 Z M13.4,12.7 L18.3,12.7 C18.6865993,12.7 19,13.0134007 19,13.4 L19,18.3 C19,18.6865993 18.6865993,19 18.3,19 L13.4,19 C13.0134007,19 12.7,18.6865993 12.7,18.3 L12.7,13.4 C12.7,13.0134007 13.0134007,12.7 13.4,12.7 Z M14.1,17.6 L17.6,17.6 L17.6,14.1 L14.1,14.1 L14.1,17.6 Z M5.7,12.7 L10.6,12.7 C10.9865993,12.7 11.3,13.0134007 11.3,13.4 L11.3,18.3 C11.3,18.6865993 10.9865993,19 10.6,19 L5.7,19 C5.31340068,19 5,18.6865993 5,18.3 L5,13.4 C5,13.0134007 5.31340068,12.7 5.7,12.7 Z M6.4,17.6 L9.9,17.6 L9.9,14.1 L6.4,14.1 L6.4,17.6 Z" id="path-1"></path>
    </defs>
    <g id="icon-/-icon-dashboard" stroke="none" stroke-width="1" fill="none" fill-rule="evenodd">
        <mask id="mask-2" fill="white">
            <use xlink:href="#path-1"></use>
        </mask>
        <use id="Combined-Shape" fill="#333333" fill-rule="nonzero" xlink:href="#path-1"></use>
    </g>
</svg>