<?xml version="1.0" encoding="UTF-8"?>
<svg width="24px" height="24px" viewBox="0 0 24 24" version="1.1" xmlns="http://www.w3.org/2000/svg" xmlns:xlink="http://www.w3.org/1999/xlink">
    <title>icon / icon-replacement</title>
    <defs>
        <path d="M19.25,12 C19.6642136,12 20,12.3357864 20,12.75 L20,12.75 L20,14.25 C20,16.3210678 18.3210678,18 16.25,18 L16.25,18 L7.561,18 L9.28033009,19.7196699 C9.54659665,19.9859365 9.5708027,20.4026002 9.35294824,20.6962117 L9.28033009,20.7803301 C8.98743687,21.0732233 8.51256313,21.0732233 8.21966991,20.7803301 L8.21966991,20.7803301 L5.21966991,17.7803301 C5.21237928,17.7730395 5.20527013,17.7656361 5.19834245,17.7581255 C5.18178062,17.7401487 5.1660007,17.7212604 5.15116475,17.7016193 C5.14317572,17.6911291 5.13568532,17.6806612 5.12849655,17.67005 C5.11746126,17.6536581 5.10681304,17.6365081 5.09685504,17.6189158 C5.0887019,17.6046244 5.08105843,17.5899909 5.0739304,17.5751715 C5.065445,17.5575139 5.05744952,17.5390942 5.05018864,17.5203089 C5.04602848,17.5094565 5.04230301,17.4990913 5.03881291,17.4886647 C5.03157935,17.4672835 5.02517085,17.4448272 5.01980803,17.4219681 C5.01701468,17.4097261 5.01457582,17.3980328 5.01241813,17.386298 C5.00429489,17.342688 5,17.2968456 5,17.25 L5.0039807,17.327404 C5.00192429,17.3074681 5.00066463,17.2874655 5.00020172,17.267448 L5,17.25 C5,17.244247 5.00006477,17.2385092 5.00019363,17.2327872 C5.00062303,17.2131986 5.00189016,17.1928629 5.0039807,17.172596 C5.00608547,17.1519296 5.00892518,17.1322562 5.01251238,17.1128449 C5.01457582,17.1019672 5.01701468,17.0902739 5.01973472,17.078633 C5.02517085,17.0551728 5.03157935,17.0327165 5.03898031,17.0107164 C5.04230301,17.0009087 5.04602848,16.9905435 5.04998933,16.9802481 C5.05744952,16.9609058 5.065445,16.9424861 5.07413984,16.9244672 C5.08105843,16.9100091 5.0887019,16.8953756 5.09686081,16.8809547 C5.10681304,16.8634919 5.11746126,16.8463419 5.1287629,16.8296709 C5.15483779,16.7910682 5.18522891,16.7541109 5.21966991,16.7196699 L5.15116475,16.7983807 C5.17217116,16.7705706 5.19507007,16.7442698 5.21966991,16.7196699 L8.21966991,13.7196699 C8.51256313,13.4267767 8.98743687,13.4267767 9.28033009,13.7196699 C9.5732233,14.0125631 9.5732233,14.4874369 9.28033009,14.7803301 L9.28033009,14.7803301 L7.559,16.5 L16.25,16.5 C17.440864,16.5 18.4156449,15.5748384 18.4948092,14.4040488 L18.5,14.25 L18.5,12.75 C18.5,12.3357864 18.8357864,12 19.25,12 Z M15.7196699,3.21966991 C16.0125631,2.9267767 16.4874369,2.9267767 16.7803301,3.21966991 L16.7803301,3.21966991 L19.7803301,6.21966991 C19.8049299,6.24426976 19.8278288,6.27057056 19.8488352,6.29838075 C19.8527455,6.30347273 19.8563902,6.30842233 19.8599664,6.3134059 C19.875247,6.33477606 19.8898144,6.35753388 19.903145,6.38108416 C19.9112981,6.39537558 19.9189416,6.41000914 19.9260696,6.42482849 C19.934555,6.44248608 19.9425505,6.46090579 19.9498114,6.47969108 C19.9539715,6.49054351 19.957697,6.50090869 19.9611871,6.51133534 C19.9682078,6.53208384 19.9744597,6.55388154 19.9797267,6.57606067 C19.982701,6.58891527 19.9852988,6.60128538 19.9875819,6.613702 C19.9957051,6.65731196 20,6.70315442 20,6.75 L19.9963234,6.67560364 C19.9978395,6.69090188 19.9988867,6.70623781 19.999465,6.72158812 L20,6.75 C20,6.75991105 19.9998078,6.7697772 19.9994268,6.77959492 C19.9988542,6.79409054 19.9978527,6.80875909 19.9964221,6.82339361 C19.9943128,6.84528402 19.9913287,6.86636981 19.9874876,6.88715509 C19.9854242,6.89803282 19.9829853,6.9097261 19.9802653,6.92136702 C19.9748291,6.9448272 19.9684207,6.96728345 19.9610197,6.98928365 C19.957697,6.99909131 19.9539715,7.00945649 19.9500107,7.01975191 C19.9425505,7.03909421 19.934555,7.05751392 19.9258602,7.07553283 C19.9189416,7.08999086 19.9112981,7.10462442 19.9031392,7.11904532 C19.8941789,7.13475568 19.8846532,7.15023702 19.8745949,7.16533301 C19.8477089,7.20582172 19.8162182,7.24444198 19.7803301,7.28033009 L19.8488352,7.20161925 C19.8471451,7.20385686 19.8454427,7.20608469 19.8437281,7.20830264 L19.7803301,7.28033009 L16.7803301,10.2803301 C16.4874369,10.5732233 16.0125631,10.5732233 15.7196699,10.2803301 C15.4267767,9.98743687 15.4267767,9.51256313 15.7196699,9.21966991 L15.7196699,9.21966991 L17.439,7.5 L8.75,7.5 C7.55913601,7.5 6.58435508,8.42516159 6.50519081,9.59595119 L6.5,9.75 L6.5,11.25 C6.5,11.6642136 6.16421356,12 5.75,12 C5.33578644,12 5,11.6642136 5,11.25 L5,11.25 L5,9.75 C5,7.67893219 6.67893219,6 8.75,6 L8.75,6 L17.439,6 L15.7196699,4.28033009 C15.4534034,4.01406352 15.4291973,3.59739984 15.6470518,3.30378835 Z" id="path-1"></path>
    </defs>
    <g id="icon-/-icon-replacement" stroke="none" stroke-width="1" fill="none" fill-rule="evenodd">
        <mask id="mask-2" fill="white">
            <use xlink:href="#path-1"></use>
        </mask>
        <use id="Combined-Shape" fill="#333333" fill-rule="nonzero" xlink:href="#path-1"></use>
    </g>
</svg>