<?xml version="1.0" encoding="UTF-8"?>
<svg width="24px" height="24px" viewBox="0 0 24 24" version="1.1" xmlns="http://www.w3.org/2000/svg" xmlns:xlink="http://www.w3.org/1999/xlink">
    <!-- Generator: Sketch 52.6 (67491) - http://www.bohemiancoding.com/sketch -->
    <title>icon / icon-action-comment-default</title>
    <desc>Created with Sketch.</desc>
    <defs>
        <path d="M7.1,5 C5.94,5 5,5.941 5,7.1 L5,18.298 C5,18.711 5.329,18.986 5.678,19 L5.731,19 C5.894,18.993 6.059,18.929 6.195,18.794 L8.79,16.199 L16.9,16.199 C18.059,16.199 19,15.258 19,14.099 L19,7.1 C19,5.941 18.059,5 16.9,5 L7.1,5 Z M6.4,7.1 C6.4,6.713 6.713,6.4 7.1,6.4 L16.9,6.4 C17.286,6.4 17.6,6.713 17.6,7.1 L17.6,14.099 C17.6,14.486 17.286,14.798 16.9,14.798 L8.5,14.798 C8.314,14.798 8.136,14.873 8.005,15.004 L6.4,16.609 L6.4,7.1 Z" id="path-1"></path>
    </defs>
    <g id="icon-/-icon-action-comment-default" stroke="none" stroke-width="1" fill="none" fill-rule="evenodd">
        <mask id="mask-2" fill="white">
            <use xlink:href="#path-1"></use>
        </mask>
        <use id="comment" fill="#333333" fill-rule="nonzero" transform="translate(12.000000, 12.000000) scale(1, -1) rotate(-180.000000) translate(-12.000000, -12.000000) " xlink:href="#path-1"></use>
    </g>
</svg>