<?xml version="1.0" encoding="UTF-8"?>
<svg width="24px" height="24px" viewBox="0 0 24 24" version="1.1" xmlns="http://www.w3.org/2000/svg" xmlns:xlink="http://www.w3.org/1999/xlink">
    <!-- Generator: Sketch 52.6 (67491) - http://www.bohemiancoding.com/sketch -->
    <title>icon / icon-success</title>
    <desc>Created with Sketch.</desc>
    <g id="icon-/-icon-success" stroke="none" stroke-width="1" fill="none" fill-rule="evenodd">
        <path d="M12,24 C5.372583,24 0,18.627417 0,12 C0,5.372583 5.372583,0 12,0 C18.627417,0 24,5.372583 24,12 C24,18.627417 18.627417,24 12,24 Z M10.4153769,16.8036003 C10.6692072,17.0654622 11.0807642,17.0654622 11.33462,16.8036265 L18.8096273,9.09284532 C19.0634576,8.83098347 19.0634576,8.40644669 18.8096273,8.14461103 L17.8904096,7.19637674 C17.6365792,6.93454109 17.2249968,6.93454109 16.9711665,7.19637674 L10.8749984,13.4847803 L8.02883352,10.5488789 C7.7750032,10.2870171 7.36342077,10.2870171 7.10959044,10.5488789 L6.19037274,11.4971132 C5.93654242,11.7589751 5.93654242,12.1835118 6.19037274,12.4453475 L10.4153769,16.8036003 Z" id="Combined-Shape" fill="#333333" fill-rule="nonzero"></path>
    </g>
</svg>