<?xml version="1.0" encoding="UTF-8"?>
<svg width="24px" height="24px" viewBox="0 0 24 24" version="1.1" xmlns="http://www.w3.org/2000/svg" xmlns:xlink="http://www.w3.org/1999/xlink">
    <!-- Generator: Sketch 52.6 (67491) - http://www.bohemiancoding.com/sketch -->
    <title>icon / icon-staff</title>
    <desc>Created with Sketch.</desc>
    <defs>
        <path d="M2.18181818,0 L13.8181818,0 C15.0231667,-1.66533454e-16 16,1.00735931 16,2.25 L16,9.75 C16,10.9926407 15.0231667,12 13.8181818,12 L2.18181818,12 C0.976833273,12 1.61486985e-16,10.9926407 0,9.75 L0,2.25 C-1.61486985e-16,1.00735931 0.976833273,2.49800181e-16 2.18181818,0 Z M2.38747898,1.54035768 C1.98581734,1.54035768 1.66020625,1.87614412 1.66020625,2.29035768 L1.66020625,9.66606657 C1.66020625,10.0802801 1.98581734,10.4160666 2.38747898,10.4160666 L13.6141786,10.4160666 C14.0158402,10.4160666 14.3414513,10.0802801 14.3414513,9.66606657 L14.3414513,2.29035768 C14.3414513,1.87614412 14.0158402,1.54035768 13.6141786,1.54035768 L2.38747898,1.54035768 Z M7,14 L7,11.5925099 C7,11.2652757 7.44771525,11 8,11 C8.55228475,11 9,11.2652757 9,11.5925099 L9,14 L11.1531866,14 C11.6208687,14 12,14.3791313 12,14.8468134 C12,15.3144955 11.6208687,15.6936267 11.1531866,15.6936267 L4.84681337,15.6936267 C4.37913126,15.6936267 4,15.3144955 4,14.8468134 C4,14.3791313 4.37913126,14 4.84681337,14 L7,14 Z" id="path-1"></path>
    </defs>
    <g id="icon-/-icon-staff" stroke="none" stroke-width="1" fill="none" fill-rule="evenodd">
        <g id="Group" transform="translate(4.000000, 4.000000)">
            <mask id="mask-2" fill="white">
                <use xlink:href="#path-1"></use>
            </mask>
            <use id="Combined-Shape" fill="#333333" fill-rule="nonzero" xlink:href="#path-1"></use>
        </g>
    </g>
</svg>