<?xml version="1.0" encoding="UTF-8"?>
<svg width="28px" height="28px" viewBox="0 0 28 28" version="1.1" xmlns="http://www.w3.org/2000/svg" xmlns:xlink="http://www.w3.org/1999/xlink">
    <!-- Generator: Sketch 52.1 (67048) - http://www.bohemiancoding.com/sketch -->
    <title>icon / icon-notice-user</title>
    <desc>Created with Sketch.</desc>
    <g id="icon-/-icon-notice-user" stroke="none" stroke-width="1" fill="none" fill-rule="evenodd">
        <path d="M14,28 C6.2680135,28 0,21.7319865 0,14 C0,6.2680135 6.2680135,0 14,0 C21.7319865,0 28,6.2680135 28,14 C28,21.7319865 21.7319865,28 14,28 Z M14,13.0666667 C15.54385,13.0666667 16.8,11.8105167 16.8,10.2666667 C16.8,8.72281667 15.54385,7.46666667 14,7.46666667 C12.45615,7.46666667 11.2,8.72281667 11.2,10.2666667 C11.2,11.8105167 12.45615,13.0666667 14,13.0666667 Z M13.5794431,14.9333333 C10.0742074,14.9333333 8.4,16.4427957 8.4,18.8321291 C8.4,19.1563506 8.70835631,19.543652 9.18136816,19.5944175 C9.21557567,19.5980888 9.25064433,19.6 9.28651977,19.6 L18.7155622,19.6 C19.0458849,19.6 19.6,19.2951016 19.6,18.8321291 C19.6,16.4427957 17.8773968,14.9333333 14.4513554,14.9333333 L13.5794431,14.9333333 Z" id="Combined-Shape" fill="#333333" fill-rule="nonzero"></path>
    </g>
</svg>