<?xml version="1.0" encoding="UTF-8"?>
<svg width="24px" height="24px" viewBox="0 0 24 24" version="1.1" xmlns="http://www.w3.org/2000/svg" xmlns:xlink="http://www.w3.org/1999/xlink">
    <title>icon / icon-door-open</title>
    <g id="icon-/-icon-door-open" stroke="none" stroke-width="1" fill="none" fill-rule="evenodd">
        <path d="M15.8788316,4.47038685 C15.8853302,4.5154447 15.888592,4.56091026 15.888592,4.60643433 L15.888592,19.3936887 C15.888592,19.9200419 15.4618984,20.3467355 14.9355451,20.3467355 C14.9161495,20.3467355 14.8967585,20.3461434 14.877399,20.3449601 L4.72298914,19.7242756 C4.22015496,19.69354 3.82808841,19.2767768 3.82808841,18.7730041 L3.82808841,6.07097553 C3.82808841,5.59717718 4.1761417,5.19532379 4.64508777,5.12768906 L14.7994976,3.66314786 C15.3204604,3.58801091 15.8036947,3.94942412 15.8788316,4.47038685 Z M19.196573,3.70991909 C19.7227822,3.6976077 20.1593395,4.11420422 20.1716509,4.64041345 L20.1719116,19.1801989 C20.1719116,19.7065521 19.745218,20.1332458 19.2188647,20.1332458 C19.1833859,20.1332458 19.1479347,20.1312646 19.1126768,20.1273116 L18.5668484,20.0661146 L18.5668484,5.18339176 L17.4785905,5.1895396 C17.4456748,4.70062793 17.429217,4.42644607 17.429217,4.36699404 C17.429217,4.081616 17.3267128,3.87877248 17.1217046,3.7584635 L19.196573,3.70991909 Z M14.2527672,5.39189691 L5.29206728,6.77269352 L5.29206728,18.3176805 L14.2527672,18.7173338 L14.2527672,5.39189691 Z M7.65706512,10.4793455 C8.41466184,10.4793455 9.02881532,11.1249974 9.02881532,11.9214494 C9.02881532,12.7179014 8.41466184,13.3635533 7.65706512,13.3635533 C6.89946841,13.3635533 6.28531493,12.7179014 6.28531493,11.9214494 C6.28531493,11.1249974 6.89946841,10.4793455 7.65706512,10.4793455 Z" id="Combined-Shape" fill="#333333" fill-rule="nonzero"></path>
    </g>
</svg>