<?xml version="1.0" encoding="UTF-8"?>
<svg width="24px" height="24px" viewBox="0 0 24 24" version="1.1" xmlns="http://www.w3.org/2000/svg" xmlns:xlink="http://www.w3.org/1999/xlink">
    <!-- Generator: Sketch 52.6 (67491) - http://www.bohemiancoding.com/sketch -->
    <title>icon / icon-printer</title>
    <desc>Created with Sketch.</desc>
    <defs>
        <path d="M17.0909091,17.0909091 L17.0909091,19.2727273 C17.0909091,19.6743889 16.765298,20 16.3636364,20 L7.63636364,20 C7.234702,20 6.90909091,19.6743889 6.90909091,19.2727273 L6.90909091,17.0909091 L6.18181818,17.0909091 C4.97683327,17.0909091 4,16.1140758 4,14.9090909 L4,11.2727273 C4,10.0677424 4.97683327,9.09090909 6.18181818,9.09090909 L6.90909091,9.09090909 L6.90909091,4.72727273 C6.90909091,4.32561109 7.234702,4 7.63636364,4 L16.3636364,4 C16.765298,4 17.0909091,4.32561109 17.0909091,4.72727273 L17.0909091,9.09090909 L17.8181818,9.09090909 C19.0231667,9.09090909 20,10.0677424 20,11.2727273 L20,14.9090909 C20,16.1140758 19.0231667,17.0909091 17.8181818,17.0909091 L17.0909091,17.0909091 Z M17.0909091,15.6363636 L17.8181818,15.6363636 C18.2198435,15.6363636 18.5454545,15.3107525 18.5454545,14.9090909 L18.5454545,11.2727273 C18.5454545,10.8710656 18.2198435,10.5454545 17.8181818,10.5454545 L6.18181818,10.5454545 C5.78015655,10.5454545 5.45454545,10.8710656 5.45454545,11.2727273 L5.45454545,14.9090909 C5.45454545,15.3107525 5.78015655,15.6363636 6.18181818,15.6363636 L6.90909091,15.6363636 L6.90909091,13.4545455 C6.90909091,13.0528838 7.234702,12.7272727 7.63636364,12.7272727 L16.3636364,12.7272727 C16.765298,12.7272727 17.0909091,13.0528838 17.0909091,13.4545455 L17.0909091,15.6363636 Z M8.36363636,9.09090909 L15.6363636,9.09090909 L15.6363636,5.45454545 L8.36363636,5.45454545 L8.36363636,9.09090909 Z M8.36363636,18.5454545 L15.6363636,18.5454545 L15.6363636,14.1818182 L8.36363636,14.1818182 L8.36363636,18.5454545 Z" id="path-1"></path>
    </defs>
    <g id="icon-/-icon-printer" stroke="none" stroke-width="1" fill="none" fill-rule="evenodd">
        <mask id="mask-2" fill="white">
            <use xlink:href="#path-1"></use>
        </mask>
        <use id="Combined-Shape" fill="#333333" fill-rule="nonzero" xlink:href="#path-1"></use>
    </g>
</svg>