<?xml version="1.0" encoding="UTF-8"?>
<svg width="28px" height="28px" viewBox="0 0 28 28" version="1.1" xmlns="http://www.w3.org/2000/svg" xmlns:xlink="http://www.w3.org/1999/xlink">
    <!-- Generator: Sketch 52.6 (67491) - http://www.bohemiancoding.com/sketch -->
    <title>icon / icon-notice-assistant</title>
    <desc>Created with Sketch.</desc>
    <defs>
        <linearGradient x1="5.34553572%" y1="91.9233785%" x2="30.9212529%" y2="50%" id="linearGradient-1">
            <stop stop-color="#FFD74D" offset="0%"></stop>
            <stop stop-color="#FFD93F" offset="100%"></stop>
        </linearGradient>
        <linearGradient x1="50%" y1="0%" x2="85.6393914%" y2="100%" id="linearGradient-2">
            <stop stop-color="#4BF1C0" offset="0%"></stop>
            <stop stop-color="#8FE2F8" offset="100%"></stop>
        </linearGradient>
        <linearGradient x1="67.1532554%" y1="0%" x2="11.9352297%" y2="79.3516844%" id="linearGradient-3">
            <stop stop-color="#F88ACB" offset="0%"></stop>
            <stop stop-color="#76B4FF" offset="100%"></stop>
        </linearGradient>
    </defs>
    <g id="icon-/-icon-notice-assistant" stroke="none" stroke-width="1" fill="none" fill-rule="evenodd">
        <path d="M5,4 L23.06749,4 C23.6197748,4 24.06749,4.44771525 24.06749,5 C24.06749,5.26490366 23.9623809,5.5189839 23.7752349,5.70646811 L5.70774487,23.8066105 C5.31757331,24.1974872 4.68440859,24.1980588 4.29353189,23.8078873 C4.10560485,23.6202992 4,23.3656717 4,23.1001424 L4,5 C4,4.44771525 4.44771525,4 5,4 Z" id="Rectangle" fill="url(#linearGradient-1)" fill-rule="nonzero"></path>
        <path d="M5,4 L24.0162397,4 C24.5621414,4 25.0071684,4.43779988 25.0161056,4.9836285 L25.2289637,17.9836285 C25.2380054,18.5358392 24.79768,18.9908242 24.2454692,18.999866 C24.2400125,18.9999553 24.2345552,19 24.2290977,19 L5,19 C4.44771525,19 4,18.5522847 4,18 L4,5 C4,4.44771525 4.44771525,4 5,4 Z" id="Rectangle" fill="url(#linearGradient-2)" fill-rule="nonzero"></path>
        <path d="M24.7576091,4.31064959 L10.5021954,19 L5,19 C4.44771525,19 4,18.5522847 4,18 L4,5 C4,4.44771525 4.44771525,4 5,4 L24.0331768,4 C24.3180149,4 24.5753387,4.11917614 24.7576091,4.31064959 Z" id="Combined-Shape" fill="url(#linearGradient-3)" fill-rule="nonzero"></path>
    </g>
</svg>