<?xml version="1.0" encoding="UTF-8"?>
<svg width="24px" height="24px" viewBox="0 0 24 24" version="1.1" xmlns="http://www.w3.org/2000/svg" xmlns:xlink="http://www.w3.org/1999/xlink">
    <!-- Generator: Sketch 52.6 (67491) - http://www.bohemiancoding.com/sketch -->
    <title>icon /  icon-checkbox-</title>
    <desc>Created with Sketch.</desc>
    <g id="icon-/--icon-checkbox-" stroke="none" stroke-width="1" fill="none" fill-rule="evenodd">
        <path d="M5,8.00335124 C5,6.34464615 6.34237885,5 8.00335124,5 L15.9966488,5 C17.6553538,5 19,6.34237885 19,8.00335124 L19,15.9966488 C19,17.6553538 17.6576211,19 15.9966488,19 L8.00335124,19 C6.34464615,19 5,17.6576211 5,15.9966488 L5,8.00335124 Z M9,11 C8.44771525,11 8,11.4477153 8,12 C8,12.5522847 8.44771525,13 9,13 L15,13 C15.5522847,13 16,12.5522847 16,12 C16,11.4477153 15.5522847,11 15,11 L9,11 Z" id="Combined-Shape" fill="#333333" fill-rule="nonzero"></path>
    </g>
</svg>