<?xml version="1.0" encoding="UTF-8"?>
<svg width="24px" height="24px" viewBox="0 0 24 24" version="1.1" xmlns="http://www.w3.org/2000/svg" xmlns:xlink="http://www.w3.org/1999/xlink">
    <!-- Generator: Sketch 52.6 (67491) - http://www.bohemiancoding.com/sketch -->
    <title>icon / icon-template</title>
    <desc>Created with Sketch.</desc>
    <defs>
        <path d="M11.1818182,10.3636364 C10.7299488,10.3636364 10.3636364,10.7299488 10.3636364,11.1818182 L10.3636364,18.5454545 C10.3636364,18.9973239 10.7299488,19.3636364 11.1818182,19.3636364 L18.5454545,19.3636364 C18.9973239,19.3636364 19.3636364,18.9973239 19.3636364,18.5454545 L19.3636364,11.1818182 C19.3636364,10.7299488 18.9973239,10.3636364 18.5454545,10.3636364 L11.1818182,10.3636364 Z M11.1818182,8.72727273 L18.5454545,8.72727273 C19.9010626,8.72727273 21,9.82621016 21,11.1818182 L21,18.5454545 C21,19.9010626 19.9010626,21 18.5454545,21 L11.1818182,21 C9.82621016,21 8.72727273,19.9010626 8.72727273,18.5454545 L8.72727273,11.1818182 C8.72727273,9.82621016 9.82621016,8.72727273 11.1818182,8.72727273 Z M6.5,13.9090909 C6.95186934,13.9090909 7.31818182,14.2754034 7.31818182,14.7272727 C7.31818182,15.1791421 6.95186934,15.5454545 6.5,15.5454545 L5.45454545,15.5454545 C4.09893743,15.5454545 3,14.4465171 3,13.0909091 L3,5.45454545 C3,4.09893743 4.09893743,3 5.45454545,3 L12.8181818,3 C14.1737898,3 15.2727273,4.09893743 15.2727273,5.45454545 L15.2727273,6.27272727 C15.2727273,6.72459661 14.9064148,7.09090909 14.4545455,7.09090909 C14.0026761,7.09090909 13.6363636,6.72459661 13.6363636,6.27272727 L13.6363636,5.45454545 C13.6363636,5.00267611 13.2700512,4.63636364 12.8181818,4.63636364 L5.45454545,4.63636364 C5.00267611,4.63636364 4.63636364,5.00267611 4.63636364,5.45454545 L4.63636364,13.0909091 C4.63636364,13.5427784 5.00267611,13.9090909 5.45454545,13.9090909 L6.5,13.9090909 Z" id="path-1"></path>
    </defs>
    <g id="icon-/-icon-template" stroke="none" stroke-width="1" fill="none" fill-rule="evenodd">
        <mask id="mask-2" fill="white">
            <use xlink:href="#path-1"></use>
        </mask>
        <use id="Combined-Shape" fill="#333333" fill-rule="nonzero" xlink:href="#path-1"></use>
    </g>
</svg>