<?xml version="1.0" encoding="UTF-8"?>
<svg width="22px" height="22px" viewBox="0 0 22 22" version="1.1" xmlns="http://www.w3.org/2000/svg" xmlns:xlink="http://www.w3.org/1999/xlink">
    <!-- Generator: sketchtool 52.6 (67491) - http://www.bohemiancoding.com/sketch -->
    <title>F0BBC551-E24C-42F3-8E7A-1DD330D50E45</title>
    <desc>Created with sketchtool.</desc>
    <g id="Import_bunch" stroke="none" stroke-width="1" fill="none" fill-rule="evenodd">
        <g id="Import_bunch-/-D-ZBC-6-2" transform="translate(-324.000000, -185.000000)" fill="#333333" fill-rule="nonzero">
            <g id="icon-/-icon-import-tag" transform="translate(320.000000, 181.000000)">
                <path d="M24.998125,14.55375 L15.435625,4.99125 C15.053125,4.60875 14.521875,4.375 13.9375,4.375 L6.5,4.375 C5.33125,4.375 4.375,5.33125 4.375,6.5 L4.375,13.9375 C4.375,14.521875 4.60875,15.053125 5.001875,15.44625 L14.564375,25.00875 C14.946875,25.39125 15.478125,25.625 16.0625,25.625 C16.646875,25.625 17.178125,25.39125 17.560625,24.998125 L24.998125,17.560625 C25.39125,17.178125 25.625,16.646875 25.625,16.0625 C25.625,15.478125 25.380625,14.93625 24.998125,14.55375 Z M8.09375003,9.6875 C7.21187505,9.6875 6.50000006,8.97562501 6.50000006,8.09375003 C6.50000006,7.21187505 7.21187505,6.50000006 8.09375003,6.50000006 C8.97562501,6.50000006 9.6875,7.21187505 9.6875,8.09375003 C9.6875,8.97562501 8.97562501,9.6875 8.09375003,9.6875 Z" id="Shape"></path>
            </g>
        </g>
    </g>
</svg>