<?xml version="1.0" encoding="UTF-8"?>
<svg width="24px" height="24px" viewBox="0 0 24 24" version="1.1" xmlns="http://www.w3.org/2000/svg" xmlns:xlink="http://www.w3.org/1999/xlink">
    <!-- Generator: Sketch 52.6 (67491) - http://www.bohemiancoding.com/sketch -->
    <title>icon / icon-plus-tag</title>
    <desc>Created with Sketch.</desc>
    <defs>
        <path d="M11.1428571,11.1428571 L11.1428571,6.85714286 C11.1428571,6.38375593 11.5266131,6 12,6 C12.4733869,6 12.8571429,6.38375593 12.8571429,6.85714286 L12.8571429,11.1428571 L17.1428571,11.1428571 C17.6162441,11.1428571 18,11.5266131 18,12 C18,12.4733869 17.6162441,12.8571429 17.1428571,12.8571429 L12.8571429,12.8571429 L12.8571429,17.1428571 C12.8571429,17.6162441 12.4733869,18 12,18 C11.5266131,18 11.1428571,17.6162441 11.1428571,17.1428571 L11.1428571,12.8571429 L6.85714286,12.8571429 C6.38375593,12.8571429 6,12.4733869 6,12 C6,11.5266131 6.38375593,11.1428571 6.85714286,11.1428571 L11.1428571,11.1428571 Z" id="path-1"></path>
    </defs>
    <g id="icon-/-icon-plus-tag" stroke="none" stroke-width="1" fill="none" fill-rule="evenodd">
        <mask id="mask-2" fill="white">
            <use xlink:href="#path-1"></use>
        </mask>
        <use id="Mask" fill="#333333" fill-rule="nonzero" xlink:href="#path-1"></use>
    </g>
</svg>