<?xml version="1.0" encoding="UTF-8"?>
<svg width="24px" height="24px" viewBox="0 0 24 24" version="1.1" xmlns="http://www.w3.org/2000/svg" xmlns:xlink="http://www.w3.org/1999/xlink">
    <!-- Generator: Sketch 52.3 (67297) - http://www.bohemiancoding.com/sketch -->
    <title>icon_qr@1x</title>
    <desc>Created with Sketch.</desc>
    <g id="icon_qr" stroke="none" stroke-width="1" fill="none" fill-rule="evenodd">
        <path d="M13,17 L15,17 L15,19 L13,19 L13,17 Z M15,19 L17,19 L17,21 L15,21 L15,19 Z M15,15 L17,15 L17,17 L15,17 L15,15 Z M17,17 L19,17 L19,19 L17,19 L17,17 Z M19,19 L21,19 L21,21 L19,21 L19,19 Z M19,15 L21,15 L21,17 L19,17 L19,15 Z M13,13 L15,13 L15,15 L13,15 L13,13 Z M17,13 L19,13 L19,15 L17,15 L17,13 Z M3,3 L11,3 L11,11 L3,11 L3,3 Z M5,5 L5,9 L9,9 L9,5 L5,5 Z M3,13 L11,13 L11,21 L3,21 L3,13 Z M5,15 L5,19 L9,19 L9,15 L5,15 Z M13,3 L21,3 L21,11 L13,11 L13,3 Z M15,5 L15,9 L19,9 L19,5 L15,5 Z" fill="#90969F" fill-rule="nonzero"></path>
    </g>
</svg>