<?xml version="1.0" encoding="UTF-8"?>
<svg width="28px" height="28px" viewBox="0 0 28 28" version="1.1" xmlns="http://www.w3.org/2000/svg" xmlns:xlink="http://www.w3.org/1999/xlink">
    <!-- Generator: Sketch 52.1 (67048) - http://www.bohemiancoding.com/sketch -->
    <title>icon / icon-notice-comment</title>
    <desc>Created with Sketch.</desc>
    <g id="icon-/-icon-notice-comment" stroke="none" stroke-width="1" fill="none" fill-rule="evenodd">
        <path d="M14,28 C6.2680135,28 0,21.7319865 0,14 C0,6.2680135 6.2680135,0 14,0 C21.7319865,0 28,6.2680135 28,14 C28,21.7319865 21.7319865,28 14,28 Z M11.734082,16.9639135 L17.4588235,16.9639135 C18.2775045,16.9639135 18.9411765,16.300308 18.9411765,15.4817091 L18.9411765,10.5410279 C18.9411765,9.72242903 18.2775045,9.05882353 17.4588235,9.05882353 L10.5411765,9.05882353 C9.72249555,9.05882353 9.05882353,9.72242903 9.05882353,10.5410279 L9.05882353,18.4461179 C9.05882353,18.8862855 9.59105836,19.1067223 9.90233512,18.7954768 L11.734082,16.9639135 Z" id="Combined-Shape" fill="#333333" fill-rule="nonzero"></path>
    </g>
</svg>