<?xml version="1.0" encoding="UTF-8"?>
<svg width="24px" height="24px" viewBox="0 0 24 24" version="1.1" xmlns="http://www.w3.org/2000/svg" xmlns:xlink="http://www.w3.org/1999/xlink">
    <title>icon / icon-attention-2</title>
    <g id="🔄-Symbols---Icon" stroke="none" stroke-width="1" fill="none" fill-rule="evenodd">
        <g id="icon-/-icon-attention-2" fill="#333333" fill-rule="nonzero">
            <path d="M12,3 C16.9705627,3 21,7.02943725 21,12 C21,16.9705627 16.9705627,21 12,21 C7.02943725,21 3,16.9705627 3,12 C3,7.02943725 7.02943725,3 12,3 Z M10.9393398,14.9393398 C10.3535534,15.5251263 10.3535534,16.4748737 10.9393398,17.0606602 C11.5251263,17.6464466 12.4748737,17.6464466 13.0606602,17.0606602 C13.6464466,16.4748737 13.6464466,15.5251263 13.0606602,14.9393398 C12.4748737,14.3535534 11.5251263,14.3535534 10.9393398,14.9393398 Z M12,6.5 C11.1715729,6.5 10.5,7.17157288 10.5,8 L10.5,8 L10.5,12 C10.5,12.8284271 11.1715729,13.5 12,13.5 C12.8284271,13.5 13.5,12.8284271 13.5,12 L13.5,12 L13.5,8 C13.5,7.17157288 12.8284271,6.5 12,6.5 Z" id="Combined-Shape"></path>
        </g>
    </g>
</svg>
