<?xml version="1.0" encoding="UTF-8"?>
<svg width="24px" height="24px" viewBox="0 0 24 24" version="1.1" xmlns="http://www.w3.org/2000/svg" xmlns:xlink="http://www.w3.org/1999/xlink">
    <!-- Generator: Sketch 52.6 (67491) - http://www.bohemiancoding.com/sketch -->
    <title>icon / icon-picture-img</title>
    <desc>Created with Sketch.</desc>
    <g id="icon-/-icon-picture-img" stroke="none" stroke-width="1" fill="none" fill-rule="evenodd">
        <path d="M18.4,12.4686292 L18.4,6.4 C18.4,5.9581722 18.0418278,5.6 17.6,5.6 L6.4,5.6 C5.9581722,5.6 5.6,5.9581722 5.6,6.4 L5.6,17.6 C5.6,17.9430473 5.81592044,18.2356636 6.1192707,18.3493585 L14.6343146,9.83431458 C14.946734,9.52189514 15.453266,9.52189514 15.7656854,9.83431458 L18.4,12.4686292 Z M18.4,14.7313708 L15.2,11.5313708 L8.33137085,18.4 L17.6,18.4 C18.0418278,18.4 18.4,18.0418278 18.4,17.6 L18.4,14.7313708 Z M6.4,4 L17.6,4 C18.9254834,4 20,5.0745166 20,6.4 L20,17.6 C20,18.9254834 18.9254834,20 17.6,20 L6.4,20 C5.0745166,20 4,18.9254834 4,17.6 L4,6.4 C4,5.0745166 5.0745166,4 6.4,4 Z M9.2,11.2 C8.0954305,11.2 7.2,10.3045695 7.2,9.2 C7.2,8.0954305 8.0954305,7.2 9.2,7.2 C10.3045695,7.2 11.2,8.0954305 11.2,9.2 C11.2,10.3045695 10.3045695,11.2 9.2,11.2 Z M9.2,9.6 C9.4209139,9.6 9.6,9.4209139 9.6,9.2 C9.6,8.9790861 9.4209139,8.8 9.2,8.8 C8.9790861,8.8 8.8,8.9790861 8.8,9.2 C8.8,9.4209139 8.9790861,9.6 9.2,9.6 Z" id="Combined-Shape" fill="#333333" fill-rule="nonzero"></path>
    </g>
</svg>