<?xml version="1.0" encoding="UTF-8"?>
<svg width="24px" height="24px" viewBox="0 0 24 24" version="1.1" xmlns="http://www.w3.org/2000/svg" xmlns:xlink="http://www.w3.org/1999/xlink">
    <!-- Generator: Sketch 52.6 (67491) - http://www.bohemiancoding.com/sketch -->
    <title>icon / icon-help</title>
    <desc>Created with Sketch.</desc>
    <g id="icon-/-icon-help" stroke="none" stroke-width="1" fill="none" fill-rule="evenodd">
        <path d="M8.66666667,9.67575746 C8.66666667,9.27036615 8.80772144,8.85958515 9.08989413,8.44350188 C9.37197209,8.02741861 9.78373708,7.68282871 10.3249049,7.40967392 C10.8661043,7.13660653 11.4974878,7 12.2190554,7 C12.8896892,7 13.4818224,7.11423208 13.9952656,7.34246316 C14.5087087,7.57081078 14.9052536,7.88128546 15.1851843,8.27385807 C15.4649887,8.66654722 15.6049383,9.09323505 15.6049383,9.5541255 C15.6049383,9.91689464 15.525143,10.2348857 15.3655525,10.507924 C15.205962,10.7810788 15.016247,11.0168554 14.7965969,11.2152539 C14.576852,11.4137107 14.1825492,11.7476669 13.6136251,12.2170934 C13.4563397,12.3494173 13.3302209,12.465747 13.2354897,12.565995 C13.1406322,12.6663013 13.0700574,12.7580424 13.0238602,12.8412183 C12.9775682,12.9244524 12.9416651,13.0076574 12.9163087,13.0908916 C12.890826,13.1740674 12.8526809,13.3203171 12.8018418,13.5293784 C12.7139312,13.973255 12.4386739,14.195135 11.9761962,14.195135 C11.7356421,14.195135 11.533233,14.1226219 11.3690954,13.9774793 C11.2048631,13.8324241 11.1227943,13.6168952 11.1227943,13.3309508 C11.1227943,12.9724643 11.1828539,12.6619896 11.3031941,12.3995559 C11.4234396,12.1370639 11.5829985,11.9066187 11.781934,11.7082202 C11.9807433,11.5097635 12.2490852,11.274016 12.5867704,11.0008612 C12.8827423,10.761909 13.0967401,10.5815732 13.2285743,10.4599413 C13.3604086,10.3383093 13.471402,10.2028973 13.5616177,10.0534429 C13.6518018,9.90410507 13.6969254,9.74197768 13.6969254,9.56694419 C13.6969254,9.22555897 13.5592494,8.93751701 13.2840868,8.70276004 C13.0088295,8.46811961 12.6537769,8.35068286 12.2190554,8.35068286 C11.7101594,8.35068286 11.3354974,8.46911015 11.095038,8.70596472 C10.8544839,8.94281929 10.6510013,9.2916918 10.4844638,9.75258224 C10.3271784,10.2348857 10.0288067,10.4759355 9.58941179,10.4759355 C9.33029036,10.4759355 9.11174546,10.3917109 8.93374552,10.2230867 C8.75568243,10.0545208 8.66666667,9.87208746 8.66666667,9.67575746 Z M12.0617021,17.2930403 C11.7491825,17.2930403 11.4764228,17.1873551 11.2433881,16.9761673 C11.0102486,16.7650159 10.8937662,16.469572 10.8937662,16.0898355 C10.8937662,15.7529206 11.006367,15.4695602 11.2318483,15.2395717 C11.4571898,15.0096927 11.733796,14.894662 12.0616671,14.894662 C12.3843978,14.894662 12.6558286,15.0096927 12.8761345,15.2395717 C13.0963005,15.4695602 13.2065234,15.7529206 13.2065234,16.0898355 C13.2065234,16.4642056 13.091265,16.7583353 12.8607481,16.9721881 C12.6302312,17.1860409 12.3639058,17.2930403 12.0617021,17.2930403 Z M12,21.1666667 C6.93738979,21.1666667 2.83333333,17.0626102 2.83333333,12 C2.83333333,6.93738979 6.93738979,2.83333333 12,2.83333333 C17.0626102,2.83333333 21.1666667,6.93738979 21.1666667,12 C21.1666667,17.0626102 17.0626102,21.1666667 12,21.1666667 Z M12,19.5 C16.1421356,19.5 19.5,16.1421356 19.5,12 C19.5,7.85786438 16.1421356,4.5 12,4.5 C7.85786438,4.5 4.5,7.85786438 4.5,12 C4.5,16.1421356 7.85786438,19.5 12,19.5 Z" id="Combined-Shape" fill="#333333" fill-rule="nonzero"></path>
    </g>
</svg>