<?xml version="1.0" encoding="UTF-8"?>
<svg width="24px" height="24px" viewBox="0 0 24 24" version="1.1" xmlns="http://www.w3.org/2000/svg" xmlns:xlink="http://www.w3.org/1999/xlink">
    <!-- Generator: sketchtool 52.6 (67491) - http://www.bohemiancoding.com/sketch -->
    <title>CFAB18E1-716B-4DAA-967C-54F3480BED16@1x</title>
    <desc>Created with sketchtool.</desc>
    <defs>
        <path d="M16.0416667,13.457392 L16.0416667,15.75 C16.0416667,16.9926407 15.0902718,18 13.9166667,18 L6.125,18 C4.95139491,18 4,16.9926407 4,15.75 L4,8.25 C4,7.00735931 4.95139491,6 6.125,6 L13.9166667,6 C15.0902718,6 16.0416667,7.00735931 16.0416667,8.25 L16.0416667,10.542608 L19.8799563,7.6396999 C20.3487798,7.2851275 21,7.63997058 21,8.25 L21,15.75 C21,16.3600294 20.3487798,16.7148725 19.8799563,16.3603001 L16.0416667,13.457392 Z M6.25795718,7.57653356 C5.86675548,7.57653356 5.54962384,7.91232 5.54962384,8.32653356 L5.54962384,15.5927764 C5.54962384,16.00699 5.86675548,16.3427764 6.25795718,16.3427764 L13.7718461,16.3427764 C14.1630478,16.3427764 14.4801794,16.00699 14.4801794,15.5927764 L14.4801794,8.32653356 C14.4801794,7.91232 14.1630478,7.57653356 13.7718461,7.57653356 L6.25795718,7.57653356 Z M16.5519961,12 L19.5833333,14.292608 L19.5833333,9.70739199 L16.5519961,12 Z" id="path-1"></path>
    </defs>
    <g id="🔄-Symbols---Icon" stroke="none" stroke-width="1" fill="none" fill-rule="evenodd">
        <g id="icon-/-icon-video">
            <mask id="mask-2" fill="white">
                <use xlink:href="#path-1"></use>
            </mask>
            <use id="Combined-Shape" fill="#333333" fill-rule="nonzero" xlink:href="#path-1"></use>
        </g>
    </g>
</svg>