<?xml version="1.0" encoding="UTF-8"?>
<svg width="24px" height="24px" viewBox="0 0 24 24" version="1.1" xmlns="http://www.w3.org/2000/svg" xmlns:xlink="http://www.w3.org/1999/xlink">
    <title>icon / icon-door</title>
    <g id="icon-/-icon-door" stroke="none" stroke-width="1" fill="none" fill-rule="evenodd">
        <path d="M18.2615368,2.5 C18.8532705,2.5 19.3329654,2.97969491 19.3329654,3.57142857 L19.3329654,20.4285714 C19.3329654,21.0203051 18.8532705,21.5 18.2615368,21.5 L5.73846316,21.5 C5.1467295,21.5 4.66703459,21.0203051 4.66703459,20.4285714 L4.66703459,3.57142857 C4.66703459,2.97969491 5.1467295,2.5 5.73846316,2.5 L18.2615368,2.5 Z M17.6498333,4.21686692 L6.34804092,4.21686692 L6.34804092,19.9801813 L17.6498333,19.9801813 L17.6498333,4.21686692 Z M9.5813203,9.88888889 C10.5280942,9.88888889 11.295606,10.6450302 11.295606,11.5777778 C11.295606,12.5105254 10.5280942,13.2666667 9.5813203,13.2666667 C8.63454645,13.2666667 7.86703459,12.5105254 7.86703459,11.5777778 C7.86703459,10.6450302 8.63454645,9.88888889 9.5813203,9.88888889 Z" id="Combined-Shape" fill="#333333" fill-rule="nonzero"></path>
    </g>
</svg>