<?xml version="1.0" encoding="UTF-8"?>
<svg width="24px" height="24px" viewBox="0 0 24 24" version="1.1" xmlns="http://www.w3.org/2000/svg" xmlns:xlink="http://www.w3.org/1999/xlink">
    <!-- Generator: Sketch 52.5 (67469) - http://www.bohemiancoding.com/sketch -->
    <title>icon / icon-trash</title>
    <desc>Created with Sketch.</desc>
    <defs>
        <path d="M16,6.27272727 L19.2,6.27272727 C19.6418278,6.27272727 20,6.63903975 20,7.09090909 C20,7.54277843 19.6418278,7.90909091 19.2,7.90909091 L18.4,7.90909091 L18.4,18.5454545 C18.4,19.9010626 17.3254834,21 16,21 L8,21 C6.6745166,21 5.6,19.9010626 5.6,18.5454545 L5.6,7.90909091 L4.8,7.90909091 C4.3581722,7.90909091 4,7.54277843 4,7.09090909 C4,6.63903975 4.3581722,6.27272727 4.8,6.27272727 L8,6.27272727 L8,5.45454545 C8,4.09893743 9.0745166,3 10.4,3 L13.6,3 C14.9254834,3 16,4.09893743 16,5.45454545 L16,6.27272727 Z M14.4,6.27272727 L14.4,5.45454545 C14.4,5.00267611 14.0418278,4.63636364 13.6,4.63636364 L10.4,4.63636364 C9.9581722,4.63636364 9.6,5.00267611 9.6,5.45454545 L9.6,6.27272727 L14.4,6.27272727 Z M16.8,7.90909091 L7.2,7.90909091 L7.2,18.5454545 C7.2,18.9973239 7.5581722,19.3636364 8,19.3636364 L16,19.3636364 C16.4418278,19.3636364 16.8,18.9973239 16.8,18.5454545 L16.8,7.90909091 Z M9.6,11.1818182 C9.6,10.7299488 9.9581722,10.3636364 10.4,10.3636364 C10.8418278,10.3636364 11.2,10.7299488 11.2,11.1818182 L11.2,16.0909091 C11.2,16.5427784 10.8418278,16.9090909 10.4,16.9090909 C9.9581722,16.9090909 9.6,16.5427784 9.6,16.0909091 L9.6,11.1818182 Z M12.8,11.1818182 C12.8,10.7299488 13.1581722,10.3636364 13.6,10.3636364 C14.0418278,10.3636364 14.4,10.7299488 14.4,11.1818182 L14.4,16.0909091 C14.4,16.5427784 14.0418278,16.9090909 13.6,16.9090909 C13.1581722,16.9090909 12.8,16.5427784 12.8,16.0909091 L12.8,11.1818182 Z" id="path-1"></path>
    </defs>
    <g id="icon-/-icon-trash" stroke="none" stroke-width="1" fill="none" fill-rule="evenodd">
        <mask id="mask-2" fill="white">
            <use xlink:href="#path-1"></use>
        </mask>
        <use id="Combined-Shape" fill="#333333" fill-rule="nonzero" xlink:href="#path-1"></use>
    </g>
</svg>