<?xml version="1.0" encoding="UTF-8"?>
<svg width="28px" height="28px" viewBox="0 0 28 28" version="1.1" xmlns="http://www.w3.org/2000/svg" xmlns:xlink="http://www.w3.org/1999/xlink">
    <!-- Generator: Sketch 52.6 (67491) - http://www.bohemiancoding.com/sketch -->
    <title>icon / icon-all-message </title>
    <desc>Created with Sketch.</desc>
    <g id="icon-/-icon-all-message-" stroke="none" stroke-width="1" fill="none" fill-rule="evenodd">
        <path d="M14,28 C6.2680135,28 0,21.7319865 0,14 C0,6.2680135 6.2680135,0 14,0 C21.7319865,0 28,6.2680135 28,14 C28,21.7319865 21.7319865,28 14,28 Z M7.65432183,12.25 L7.65432183,10.75 C7.65432183,10.3357864 7.36650488,10 7.01146468,10 C6.65642449,10 6.36860754,10.3357864 6.36860754,10.75 L6.36860754,12.25 L4.75,12.25 C4.33578644,12.25 4,12.5476289 4,12.9147727 C4,13.2819166 4.33578644,13.5795455 4.75,13.5795455 L6.36860754,13.5795455 L6.36860754,15.25 C6.36860754,15.6642136 6.65642449,16 7.01146468,16 C7.36650488,16 7.65432183,15.6642136 7.65432183,15.25 L7.65432183,13.5795455 L9.25,13.5795455 C9.66421356,13.5795455 10,13.2819166 10,12.9147727 C10,12.5476289 9.66421356,12.25 9.25,12.25 L7.65432183,12.25 Z M18.75,13.0769231 C20.2025,13.0769231 21.36625,11.9430769 21.36625,10.5384615 C21.36625,9.13384615 20.2025,8 18.75,8 C18.47,8 18.19875,8.04230769 17.95375,8.11846154 C18.4525,8.80384615 18.74125,9.63307692 18.74125,10.5384615 C18.74125,11.4438462 18.44375,12.2646154 17.95375,12.9584615 C18.19875,13.0346154 18.47,13.0769231 18.75,13.0769231 Z M14.375,13.0769231 C15.8275,13.0769231 16.99125,11.9430769 16.99125,10.5384615 C16.99125,9.13384615 15.8275,8 14.375,8 C12.9225,8 11.75,9.13384615 11.75,10.5384615 C11.75,11.9430769 12.9225,13.0769231 14.375,13.0769231 Z M20.1675,14.9046154 C20.89375,15.5223077 21.375,16.3092308 21.375,17.3076923 L21.375,18.8201384 L24,18.8201384 L24,17.3076923 C24,16.0046154 21.92625,15.2007692 20.1675,14.9046154 Z M14.375,14.7692308 C12.625,14.7692308 9.125,15.6153846 9.125,17.3076923 L9.125,18.8201384 L19.625,18.8201384 L19.625,17.3076923 C19.625,15.6153846 16.125,14.7692308 14.375,14.7692308 Z" id="Combined-Shape" fill="#333333" fill-rule="nonzero"></path>
    </g>
</svg>