<?xml version="1.0" encoding="UTF-8"?>
<svg width="68px" height="68px" viewBox="0 0 68 68" version="1.1" xmlns="http://www.w3.org/2000/svg" xmlns:xlink="http://www.w3.org/1999/xlink">
    <!-- Generator: Sketch 52.1 (67048) - http://www.bohemiancoding.com/sketch -->
    <title>icon / icon-navi-avatar</title>
    <desc>Created with Sketch.</desc>
    <g id="icon-/-icon-navi-avatar" stroke="none" stroke-width="1" fill="none" fill-rule="evenodd">
        <path d="M34,68 C15.2223185,68 0,52.7776815 0,34 C0,15.2223185 15.2223185,0 34,0 C52.7776815,0 68,15.2223185 68,34 C68,52.7776815 52.7776815,68 34,68 Z M34,31.7333333 C37.74935,31.7333333 40.8,28.6826833 40.8,24.9333333 C40.8,21.1839833 37.74935,18.1333333 34,18.1333333 C30.25065,18.1333333 27.2,21.1839833 27.2,24.9333333 C27.2,28.6826833 30.25065,31.7333333 34,31.7333333 Z M32.9786476,36.2666667 C24.4659323,36.2666667 20.4,39.9325039 20.4,45.7351706 C20.4,46.5225658 21.1488653,47.4631548 22.2976084,47.5864425 C22.3806838,47.5953585 22.4658505,47.6 22.5529766,47.6 L45.4520796,47.6 C46.254292,47.6 47.6,46.8595324 47.6,45.7351706 C47.6,39.9325039 43.416535,36.2666667 35.0961489,36.2666667 L32.9786476,36.2666667 Z" id="Combined-Shape" fill="#333333" fill-rule="nonzero"></path>
    </g>
</svg>