<?xml version="1.0" encoding="UTF-8"?>
<svg width="24px" height="24px" viewBox="0 0 24 24" version="1.1" xmlns="http://www.w3.org/2000/svg" xmlns:xlink="http://www.w3.org/1999/xlink">
    <!-- Generator: Sketch 52.6 (67491) - http://www.bohemiancoding.com/sketch -->
    <title>icon / icon-setting</title>
    <desc>Created with Sketch.</desc>
    <defs>
        <path d="M18.2240989,9.53638101 C18.3132474,9.66780454 18.462253,9.74935588 18.6225,9.75 L18.75,9.75 C19.9926407,9.75 21,10.7573593 21,12 C21,13.2426407 19.9926407,14.25 18.75,14.25 L18.6854912,14.249994 C18.4911876,14.250769 18.3158978,14.366855 18.2393549,14.5454486 C18.1556809,14.7351461 18.1942911,14.948087 18.3278301,15.0846699 L18.372535,15.129375 C18.7950334,15.5514036 19.03243,16.1240792 19.03243,16.72125 C19.03243,17.3184208 18.7950334,17.8910964 18.373125,18.312535 C17.9510964,18.7350334 17.3784208,18.97243 16.78125,18.97243 C16.1840792,18.97243 15.6114036,18.7350334 15.1896699,18.3128301 L15.1505513,18.2736469 C15.008087,18.1342911 14.7951461,18.0956809 14.6054486,18.1793549 C14.426855,18.2558978 14.310769,18.4311876 14.31,18.6225 L14.31,18.75 C14.31,19.9926407 13.3026407,21 12.06,21 C10.8173593,21 9.81,19.9926407 9.81,18.75 C9.80552409,18.4999185 9.67898539,18.3229986 9.44717599,18.2361469 C9.26485393,18.1556809 9.05191298,18.1942911 8.91533009,18.3278301 L8.870625,18.372535 C8.44859642,18.7950334 7.87592081,19.03243 7.27875,19.03243 C6.68157919,19.03243 6.10890358,18.7950334 5.68746499,18.373125 C5.26496665,17.9510964 5.02757002,17.3784208 5.02757002,16.78125 C5.02757002,16.1840792 5.26496665,15.6114036 5.68716991,15.1896699 L5.72635306,15.1505513 C5.86570889,15.008087 5.90431906,14.7951461 5.82064513,14.6054486 C5.74410223,14.426855 5.56881236,14.310769 5.3775,14.31 L5.25,14.31 C4.00735931,14.31 3,13.3026407 3,12.06 C3,10.8173593 4.00735931,9.81 5.25,9.81 C5.50008154,9.80552409 5.67700139,9.67898539 5.76385306,9.44717599 C5.84431906,9.26485393 5.80570889,9.05191298 5.67216991,8.91533009 L5.62746499,8.870625 C5.20496665,8.44859642 4.96757002,7.87592081 4.96757002,7.27875 C4.96757002,6.68157919 5.20496665,6.10890358 5.626875,5.68746499 C6.04890358,5.26496665 6.62157919,5.02757002 7.21875,5.02757002 C7.81592081,5.02757002 8.38859642,5.26496665 8.81033009,5.68716991 L8.84944872,5.72635306 C8.99191298,5.86570889 9.20485393,5.90431906 9.38717599,5.82385306 C9.43522985,5.80264498 9.4852454,5.78660183 9.53638101,5.77590109 C9.66780454,5.68675256 9.74935588,5.53774702 9.75,5.3775 L9.75,5.25 C9.75,4.00735931 10.7573593,3 12,3 C13.2426407,3 14.25,4.00735931 14.25,5.25 L14.249994,5.31450877 C14.250769,5.50881236 14.366855,5.68410223 14.552824,5.76385306 C14.7351461,5.84431906 14.948087,5.80570889 15.0846699,5.67216991 L15.129375,5.62746499 C15.5514036,5.20496665 16.1240792,4.96757002 16.72125,4.96757002 C17.3184208,4.96757002 17.8910964,5.20496665 18.312535,5.626875 C18.7350334,6.04890358 18.97243,6.62157919 18.97243,7.21875 C18.97243,7.81592081 18.7350334,8.38859642 18.3128301,8.81033009 L18.2736469,8.84944872 C18.1342911,8.99191298 18.0956809,9.20485393 18.1761469,9.38717599 C18.197355,9.43522985 18.2133982,9.4852454 18.2240989,9.53638101 Z M9.84733945,7.25365657 C9.13853835,7.50212853 8.34347236,7.32971788 7.79466991,6.79283009 L7.749375,6.74753501 C7.60869881,6.60670223 7.41780694,6.52757002 7.21875,6.52757002 C7.01969306,6.52757002 6.82880119,6.60670223 6.68753501,6.748125 C6.54670223,6.88880119 6.46757002,7.07969306 6.46757002,7.27875 C6.46757002,7.47780694 6.54670223,7.66869881 6.68783009,7.80966991 L6.73864694,7.86055128 C7.30678993,8.44136712 7.46420062,9.30951097 7.15390208,10.0088858 C6.87220084,10.7748223 6.15091222,11.2907108 5.3175,11.31 L5.25,11.31 C4.83578644,11.31 4.5,11.6457864 4.5,12.06 C4.5,12.4742136 4.83578644,12.81 5.25,12.81 L5.38049123,12.810006 C6.17265203,12.8131654 6.88729535,13.2864391 7.19614694,14.007176 C7.52420062,14.750489 7.36678993,15.6186329 6.79283009,16.2053301 L6.74753501,16.250625 C6.60670223,16.3913012 6.52757002,16.5821931 6.52757002,16.78125 C6.52757002,16.9803069 6.60670223,17.1711988 6.748125,17.312465 C6.88880119,17.4532978 7.07969306,17.53243 7.27875,17.53243 C7.47780694,17.53243 7.66869881,17.4532978 7.80966991,17.3121699 L7.86055128,17.2613531 C8.44136712,16.6932101 9.30951097,16.5357994 10.0088858,16.8460979 C10.7748223,17.1277992 11.2907108,17.8490878 11.31,18.6825 L11.31,18.75 C11.31,19.1642136 11.6457864,19.5 12.06,19.5 C12.4742136,19.5 12.81,19.1642136 12.81,18.75 L12.810006,18.6195088 C12.8131654,17.827348 13.2864391,17.1127047 14.007176,16.8038531 C14.750489,16.4757994 15.6186329,16.6332101 16.2053301,17.2071699 L16.250625,17.252465 C16.3913012,17.3932978 16.5821931,17.47243 16.78125,17.47243 C16.9803069,17.47243 17.1711988,17.3932978 17.312465,17.251875 C17.4532978,17.1111988 17.53243,16.9203069 17.53243,16.72125 C17.53243,16.5221931 17.4532978,16.3313012 17.3121699,16.1903301 L17.2613531,16.1394487 C16.6932101,15.5586329 16.5357994,14.690489 16.8638531,13.947176 C17.1727047,13.2264391 17.887348,12.7531654 18.6825,12.75 L18.75,12.75 C19.1642136,12.75 19.5,12.4142136 19.5,12 C19.5,11.5857864 19.1642136,11.25 18.75,11.25 L18.6195088,11.249994 C17.827348,11.2468346 17.1127047,10.7735609 16.8006451,10.0454486 C16.7734834,9.9820735 16.7552523,9.91540146 16.7463434,9.84733945 C16.4978715,9.13853835 16.6702821,8.34347236 17.2071699,7.79466991 L17.252465,7.749375 C17.3932978,7.60869881 17.47243,7.41780694 17.47243,7.21875 C17.47243,7.01969306 17.3932978,6.82880119 17.251875,6.68753501 C17.1111988,6.54670223 16.9203069,6.46757002 16.72125,6.46757002 C16.5221931,6.46757002 16.3313012,6.54670223 16.1903301,6.68783009 L16.1394487,6.73864694 C15.5586329,7.30678993 14.690489,7.46420062 13.9545514,7.13935487 C13.2264391,6.82729535 12.7531654,6.11265203 12.75,5.3175 L12.75,5.25 C12.75,4.83578644 12.4142136,4.5 12,4.5 C11.5857864,4.5 11.25,4.83578644 11.25,5.25 L11.249994,5.38049123 C11.2468346,6.17265203 10.7735609,6.88729535 10.0454486,7.19935487 C9.9820735,7.22651661 9.91540146,7.24474765 9.84733945,7.25365657 Z M12,15 C10.3431458,15 9,13.6568542 9,12 C9,10.3431458 10.3431458,9 12,9 C13.6568542,9 15,10.3431458 15,12 C15,13.6568542 13.6568542,15 12,15 Z M12,13.5 C12.8284271,13.5 13.5,12.8284271 13.5,12 C13.5,11.1715729 12.8284271,10.5 12,10.5 C11.1715729,10.5 10.5,11.1715729 10.5,12 C10.5,12.8284271 11.1715729,13.5 12,13.5 Z" id="path-1"></path>
    </defs>
    <g id="icon-/-icon-setting" stroke="none" stroke-width="1" fill="none" fill-rule="evenodd">
        <mask id="mask-2" fill="white">
            <use xlink:href="#path-1"></use>
        </mask>
        <use id="Combined-Shape" fill="#333333" fill-rule="nonzero" xlink:href="#path-1"></use>
    </g>
</svg>