<svg width="16" height="16" viewBox="0 0 16 16" fill="none" xmlns="http://www.w3.org/2000/svg">
<path fill-rule="evenodd" clip-rule="evenodd" d="M8 16C12.4183 16 16 12.4183 16 8C16 3.58172 12.4183 0 8 0C3.58172 0 0 3.58172 0 8C0 12.4183 3.58172 16 8 16ZM8.64022 11.2045C8.4497 11.0035 8.21498 10.9029 7.93589 10.9029C7.65236 10.9029 7.41316 11.0035 7.21829 11.2045C7.0233 11.4056 6.92593 11.6534 6.92593 11.9479C6.92593 12.28 7.02666 12.5383 7.22827 12.7229C7.42979 12.9076 7.66566 13 7.93592 13C8.19726 13 8.42757 12.9064 8.62691 12.7195C8.82625 12.5325 8.92593 12.2753 8.92593 11.9479C8.92593 11.6534 8.83061 11.4056 8.64022 11.2045ZM9.60801 4.29944C9.164 4.09988 8.65194 4 8.07199 4C7.44801 4 6.902 4.11945 6.43399 4.35821C5.96601 4.59705 5.60993 4.89835 5.36599 5.26217C5.12198 5.62598 5 5.98516 5 6.33962C5 6.51129 5.07698 6.6708 5.23096 6.81819C5.38489 6.96563 5.57388 7.03928 5.79796 7.03928C6.17794 7.03928 6.43596 6.82851 6.57197 6.4068C6.71599 6.0038 6.89196 5.69876 7.09998 5.49166C7.30792 5.28456 7.63192 5.18101 8.07199 5.18101C8.44793 5.18101 8.75497 5.28369 8.993 5.48885C9.23095 5.69412 9.35001 5.94598 9.35001 6.24448C9.35001 6.39752 9.31099 6.53928 9.233 6.66986C9.15499 6.80054 9.059 6.91894 8.945 7.02529C8.83099 7.13165 8.64593 7.28933 8.38998 7.49826C8.09796 7.7371 7.86591 7.94323 7.69399 8.11676C7.52195 8.29024 7.38397 8.49173 7.27999 8.72125C7.17592 8.95072 7.12398 9.22219 7.12398 9.53564C7.12398 9.78566 7.19495 9.97412 7.33698 10.1009C7.47892 10.2279 7.65395 10.2913 7.86198 10.2913C8.26191 10.2913 8.49995 10.0973 8.57597 9.70914C8.61993 9.52634 8.65292 9.39846 8.67496 9.32574C8.69689 9.25296 8.72793 9.18021 8.76796 9.10743C8.80791 9.0347 8.86895 8.95448 8.95098 8.86678C9.0329 8.77913 9.14196 8.67741 9.27798 8.56171C9.76996 8.15125 10.1109 7.85925 10.301 7.68572C10.4909 7.51225 10.655 7.30609 10.793 7.06725C10.931 6.82851 11 6.55047 11 6.23327C11 5.83028 10.879 5.45719 10.637 5.11383C10.3949 4.77058 10.052 4.4991 9.60801 4.29944Z" fill="black"/>
</svg>
