<?xml version="1.0" encoding="UTF-8"?>
<svg width="24px" height="24px" viewBox="0 0 24 24" version="1.1" xmlns="http://www.w3.org/2000/svg" xmlns:xlink="http://www.w3.org/1999/xlink">
    <!-- Generator: Sketch 52.6 (67491) - http://www.bohemiancoding.com/sketch -->
    <title>icon / icon-notice-mail</title>
    <desc>Created with Sketch.</desc>
    <defs>
        <path d="M15.8181818,13.8650643 L15.8181818,10.4554242 C15.8181818,8.19571349 14.1087236,6.36385606 12,6.36385606 C9.89127643,6.36385606 8.18181821,8.19571349 8.18181818,10.4554242 L8.18181818,13.8650643 C8.18181818,14.3618995 8.05786182,14.8277102 7.84128168,15.2289204 L16.1587183,15.2289204 C15.9421382,14.8277102 15.8181818,14.3618995 15.8181818,13.8650643 Z M18.3636364,16.5927764 L5.63636364,16.5927764 C4.78787879,16.5927764 4.78787879,15.2289204 5.63636364,15.2289204 C6.3392715,15.2289204 6.90909091,14.6183012 6.90909091,13.8650643 L6.90909091,10.4554241 C6.90909095,7.44247657 9.18836858,5 12,5 C14.8116314,5 17.090909,7.44247657 17.0909091,10.4554242 L17.0909091,13.8650643 C17.0909091,14.6183012 17.6607285,15.2289204 18.3636364,15.2289204 C19.2121212,15.2289204 19.2121212,16.5927764 18.3636364,16.5927764 Z M13.6513636,18.9807328 C13.3098294,19.6116571 12.6806564,20 12,20 C11.3193436,20 10.6901706,19.6116571 10.3486364,18.9807328 C10.1025413,18.5261155 10.4086388,17.9566325 10.8990909,17.9566325 L13.1009091,17.9566325 C13.5913612,17.9566325 13.8974587,18.5261155 13.6513636,18.9807328 Z" id="path-1"></path>
    </defs>
    <g id="icon-/-icon-notice-mail" stroke="none" stroke-width="1" fill="none" fill-rule="evenodd">
        <mask id="mask-2" fill="white">
            <use xlink:href="#path-1"></use>
        </mask>
        <use id="Shape" fill="#333333" fill-rule="nonzero" xlink:href="#path-1"></use>
    </g>
</svg>