<?xml version="1.0" encoding="UTF-8"?>
<svg width="24px" height="24px" viewBox="0 0 24 24" version="1.1" xmlns="http://www.w3.org/2000/svg" xmlns:xlink="http://www.w3.org/1999/xlink">
    <!-- Generator: Sketch 52.6 (67491) - http://www.bohemiancoding.com/sketch -->
    <title>icon / icon-analytics</title>
    <desc>Created with Sketch.</desc>
    <defs>
        <path d="M11.25,6 L11.25,18 L12.75,18 L12.75,6 L11.25,6 Z M10.5,4.5 L13.5,4.5 C13.9142136,4.5 14.25,4.83578644 14.25,5.25 L14.25,18.75 C14.25,19.1642136 13.9142136,19.5 13.5,19.5 L10.5,19.5 C10.0857864,19.5 9.75,19.1642136 9.75,18.75 L9.75,5.25 C9.75,4.83578644 10.0857864,4.5 10.5,4.5 Z M16.5,8.25 L19.5,8.25 C19.9142136,8.25 20.25,8.58578644 20.25,9 L20.25,18.75 C20.25,19.1642136 19.9142136,19.5 19.5,19.5 L16.5,19.5 C16.0857864,19.5 15.75,19.1642136 15.75,18.75 L15.75,9 C15.75,8.58578644 16.0857864,8.25 16.5,8.25 Z M4.5,12 L7.5,12 C7.91421356,12 8.25,12.3357864 8.25,12.75 L8.25,18.75 C8.25,19.1642136 7.91421356,19.5 7.5,19.5 L4.5,19.5 C4.08578644,19.5 3.75,19.1642136 3.75,18.75 L3.75,12.75 C3.75,12.3357864 4.08578644,12 4.5,12 Z M17.25,9.75 L17.25,18 L18.75,18 L18.75,9.75 L17.25,9.75 Z M5.25,18 L6.75,18 L6.75,13.5 L5.25,13.5 L5.25,18 Z" id="path-1"></path>
    </defs>
    <g id="icon-/-icon-analytics" stroke="none" stroke-width="1" fill="none" fill-rule="evenodd">
        <mask id="mask-2" fill="white">
            <use xlink:href="#path-1"></use>
        </mask>
        <use id="Combined-Shape" fill="#333333" fill-rule="nonzero" xlink:href="#path-1"></use>
    </g>
</svg>