<?xml version="1.0" encoding="UTF-8"?>
<svg width="24px" height="24px" viewBox="0 0 24 24" version="1.1" xmlns="http://www.w3.org/2000/svg" xmlns:xlink="http://www.w3.org/1999/xlink">
    <!-- Generator: Sketch 52.6 (67491) - http://www.bohemiancoding.com/sketch -->
    <title>icon / icon-radio-selected</title>
    <desc>Created with Sketch.</desc>
    <g id="icon-/-icon-radio-selected" stroke="none" stroke-width="1" fill="none" fill-rule="evenodd">
        <path d="M12,20 C7.581722,20 4,16.418278 4,12 C4,7.581722 7.581722,4 12,4 C16.418278,4 20,7.581722 20,12 C20,16.418278 16.418278,20 12,20 Z M12,18.2222222 C15.4364384,18.2222222 18.2222222,15.4364384 18.2222222,12 C18.2222222,8.56356156 15.4364384,5.77777778 12,5.77777778 C8.56356156,5.77777778 5.77777778,8.56356156 5.77777778,12 C5.77777778,15.4364384 8.56356156,18.2222222 12,18.2222222 Z M12,15.5555556 C10.0363209,15.5555556 8.44444444,13.9636791 8.44444444,12 C8.44444444,10.0363209 10.0363209,8.44444444 12,8.44444444 C13.9636791,8.44444444 15.5555556,10.0363209 15.5555556,12 C15.5555556,13.9636791 13.9636791,15.5555556 12,15.5555556 Z" id="Combined-Shape" fill="#333333" fill-rule="nonzero"></path>
    </g>
</svg>