<?xml version="1.0" encoding="UTF-8"?>
<svg width="24px" height="24px" viewBox="0 0 24 24" version="1.1" xmlns="http://www.w3.org/2000/svg" xmlns:xlink="http://www.w3.org/1999/xlink">
    <!-- Generator: Sketch 52.6 (67491) - http://www.bohemiancoding.com/sketch -->
    <title>icon / icon-attention</title>
    <desc>Created with Sketch.</desc>
    <defs>
        <path d="M12,20 C7.581722,20 4,16.418278 4,12 C4,7.581722 7.581722,4 12,4 C16.418278,4 20,7.581722 20,12 C20,16.418278 16.418278,20 12,20 Z M12,18.2222222 C15.4364384,18.2222222 18.2222222,15.4364384 18.2222222,12 C18.2222222,8.56356156 15.4364384,5.77777778 12,5.77777778 C8.56356156,5.77777778 5.77777778,8.56356156 5.77777778,12 C5.77777778,15.4364384 8.56356156,18.2222222 12,18.2222222 Z M11.1111111,8.44444444 C11.1111111,7.95352467 11.5090802,7.55555556 12,7.55555556 C12.4909198,7.55555556 12.8888889,7.95352467 12.8888889,8.44444444 L12.8888889,12 C12.8888889,12.4909198 12.4909198,12.8888889 12,12.8888889 C11.5090802,12.8888889 11.1111111,12.4909198 11.1111111,12 L11.1111111,8.44444444 Z M11.3714606,15.295206 C11.0243279,14.9480733 11.0243279,14.38526 11.3714606,14.0381273 C11.7185933,13.6909946 12.2814067,13.6909946 12.6285394,14.0381273 C12.9756721,14.38526 12.9756721,14.9480733 12.6285394,15.295206 C12.2814067,15.6423387 11.7185933,15.6423387 11.3714606,15.295206 Z" id="path-1"></path>
    </defs>
    <g id="icon-/-icon-attention" stroke="none" stroke-width="1" fill="none" fill-rule="evenodd">
        <mask id="mask-2" fill="white">
            <use xlink:href="#path-1"></use>
        </mask>
        <use id="Combined-Shape" fill="#333333" fill-rule="nonzero" xlink:href="#path-1"></use>
    </g>
</svg>