<?xml version="1.0" encoding="UTF-8"?>
<svg width="21px" height="24px" viewBox="0 0 21 24" version="1.1" xmlns="http://www.w3.org/2000/svg" xmlns:xlink="http://www.w3.org/1999/xlink">
    <!-- Generator: sketchtool 52.6 (67491) - http://www.bohemiancoding.com/sketch -->
    <title>EA27222E-B6E7-4B16-8845-046F280F57A6</title>
    <desc>Created with sketchtool.</desc>
    <g id="Import_bunch" stroke="none" stroke-width="1" fill="none" fill-rule="evenodd">
        <g id="Import_bunch-/-D-ZBC-7-2" transform="translate(-325.000000, -184.000000)" fill="#333333" fill-rule="nonzero">
            <g id="icon-/-icon-import-studenttag" transform="translate(320.000000, 181.000000)">
                <path d="M23.3333333,6.04166675 L18.54375,6.04166675 C18.0625,4.71250003 16.8020833,3.75 15.3125,3.75 C13.8229167,3.75 12.5625,4.71250003 12.08125,6.04166675 L7.29166667,6.04166675 C6.03125,6.04166675 5,7.07291678 5,8.33333349 L5,24.3750007 C5,25.6354174 6.03125,26.6666675 7.29166667,26.6666675 L23.3333333,26.6666675 C24.59375,26.6666675 25.625,25.6354174 25.625,24.3750007 L25.625,8.33333349 C25.625,7.07291678 24.59375,6.04166675 23.3333333,6.04166675 Z M15.3125002,6.04166672 C15.9427086,6.04166672 16.4583336,6.55729173 16.4583336,7.18750007 C16.4583336,7.81770842 15.9427086,8.33333343 15.3125002,8.33333343 C14.6822919,8.33333343 14.1666669,7.81770842 14.1666669,7.18750007 C14.1666669,6.55729173 14.6822919,6.04166672 15.3125002,6.04166672 Z M15.3125,11.875 C16.86875,11.875 18.125,13.13125 18.125,14.6875 C18.125,16.24375 16.86875,17.5 15.3125,17.5 C13.75625,17.5 12.5,16.24375 12.5,14.6875 C12.5,13.13125 13.75625,11.875 15.3125,11.875 Z M21.25,23.125 L9.375,23.125 L9.375,21.7638889 C9.375,19.8194444 13.0128952,18.75 15.3125,18.75 C17.6121048,18.75 21.25,19.8194444 21.25,21.7638889 L21.25,23.125 Z" id="Shape"></path>
            </g>
        </g>
    </g>
</svg>