<?xml version="1.0" encoding="UTF-8"?>
<svg width="24px" height="24px" viewBox="0 0 24 24" version="1.1" xmlns="http://www.w3.org/2000/svg" xmlns:xlink="http://www.w3.org/1999/xlink">
    <!-- Generator: Sketch 52.6 (67491) - http://www.bohemiancoding.com/sketch -->
    <title>icon / icon-eye</title>
    <desc>Created with Sketch.</desc>
    <g id="icon-/-icon-eye" stroke="none" stroke-width="1" fill="none" fill-rule="evenodd">
        <path d="M12,7 C8.66666667,7 5.82,9.07333333 4.66666667,12 C5.82,14.9266667 8.66666667,17 12,17 C15.3333333,17 18.18,14.9266667 19.3333333,12 C18.18,9.07333333 15.3333333,7 12,7 Z M12,15.3333333 C10.16,15.3333333 8.66666667,13.84 8.66666667,12 C8.66666667,10.16 10.16,8.66666667 12,8.66666667 C13.84,8.66666667 15.3333333,10.16 15.3333333,12 C15.3333333,13.84 13.84,15.3333333 12,15.3333333 Z M12,10 C10.8933333,10 10,10.8933333 10,12 C10,13.1066667 10.8933333,14 12,14 C13.1066667,14 14,13.1066667 14,12 C14,10.8933333 13.1066667,10 12,10 Z" id="icon-eye" fill="#333333" fill-rule="nonzero"></path>
    </g>
</svg>