<svg width="48" height="48" viewBox="0 0 48 48" fill="none" xmlns="http://www.w3.org/2000/svg">
<path d="M15.3111 30.8944L21.0722 25.1333L24.85 28.9111L32.0278 21.7806V25.4167H34.8611V16.9167H26.3611V19.75H29.9972L24.85 24.8972L21.0722 21.1194L13.3278 28.9111L15.3111 30.8944ZM9.83333 41C9.07778 41 8.41667 40.7167 7.85 40.15C7.28333 39.5833 7 38.9222 7 38.1667V9.83333C7 9.07778 7.28333 8.41667 7.85 7.85C8.41667 7.28333 9.07778 7 9.83333 7H38.1667C38.9222 7 39.5833 7.28333 40.15 7.85C40.7167 8.41667 41 9.07778 41 9.83333V38.1667C41 38.9222 40.7167 39.5833 40.15 40.15C39.5833 40.7167 38.9222 41 38.1667 41H9.83333Z" fill="black"/>
</svg>
