<?xml version="1.0" encoding="UTF-8"?>
<svg width="24px" height="24px" viewBox="0 0 24 24" version="1.1" xmlns="http://www.w3.org/2000/svg" xmlns:xlink="http://www.w3.org/1999/xlink">
    <!-- Generator: Sketch 52.6 (67491) - http://www.bohemiancoding.com/sketch -->
    <title>icon / icon-external-link</title>
    <desc>Created with Sketch.</desc>
    <defs>
        <path d="M17.2686292,5.6 L14.4,5.6 C13.9581722,5.6 13.6,5.2418278 13.6,4.8 C13.6,4.3581722 13.9581722,4 14.4,4 L19.2,4 C19.6418278,4 20,4.3581722 20,4.8 L20,9.6 C20,10.0418278 19.6418278,10.4 19.2,10.4 C18.7581722,10.4 18.4,10.0418278 18.4,9.6 L18.4,6.73137085 L10.9656854,14.1656854 C10.653266,14.4781049 10.146734,14.4781049 9.83431458,14.1656854 C9.52189514,13.853266 9.52189514,13.346734 9.83431458,13.0343146 L17.2686292,5.6 Z M16,12.8 C16,12.3581722 16.3581722,12 16.8,12 C17.2418278,12 17.6,12.3581722 17.6,12.8 L17.6,17.6 C17.6,18.9254834 16.5254834,20 15.2,20 L6.4,20 C5.0745166,20 4,18.9254834 4,17.6 L4,8.8 C4,7.4745166 5.0745166,6.4 6.4,6.4 L11.2,6.4 C11.6418278,6.4 12,6.7581722 12,7.2 C12,7.6418278 11.6418278,8 11.2,8 L6.4,8 C5.9581722,8 5.6,8.3581722 5.6,8.8 L5.6,17.6 C5.6,18.0418278 5.9581722,18.4 6.4,18.4 L15.2,18.4 C15.6418278,18.4 16,18.0418278 16,17.6 L16,12.8 Z" id="path-1"></path>
    </defs>
    <g id="icon-/-icon-external-link" stroke="none" stroke-width="1" fill="none" fill-rule="evenodd">
        <mask id="mask-2" fill="white">
            <use xlink:href="#path-1"></use>
        </mask>
        <use id="Combined-Shape" fill="#333333" fill-rule="nonzero" xlink:href="#path-1"></use>
    </g>
</svg>