<?xml version="1.0" encoding="UTF-8"?>
<svg width="28px" height="28px" viewBox="0 0 28 28" version="1.1" xmlns="http://www.w3.org/2000/svg" xmlns:xlink="http://www.w3.org/1999/xlink">
    <!-- Generator: Sketch 52.1 (67048) - http://www.bohemiancoding.com/sketch -->
    <title>icon / icon-notice-smarttag</title>
    <desc>Created with Sketch.</desc>
    <g id="icon-/-icon-notice-smarttag" stroke="none" stroke-width="1" fill="none" fill-rule="evenodd">
        <path d="M14,28 C6.2680135,28 0,21.7319865 0,14 C0,6.2680135 6.2680135,0 14,0 C21.7319865,0 28,6.2680135 28,14 C28,21.7319865 21.7319865,28 14,28 Z M14,17.2889126 L17.3037745,18.8482759 C17.6444421,19.081856 18.1176471,18.8480976 18.1176471,18.4462313 L18.1176471,10.5410458 C18.1176471,9.72243705 17.426322,9.05882353 16.5735294,9.05882353 L11.4264706,9.05882353 C10.573678,9.05882353 9.88235294,9.72243705 9.88235294,10.5410458 L9.88235294,18.4462313 C9.88235294,18.8480976 10.3555579,19.081856 10.6962255,18.8482759 L14,17.2889126 Z" id="Combined-Shape" fill="#333333" fill-rule="nonzero"></path>
    </g>
</svg>