<?xml version="1.0" encoding="UTF-8"?>
<svg width="24px" height="24px" viewBox="0 0 24 24" version="1.1" xmlns="http://www.w3.org/2000/svg" xmlns:xlink="http://www.w3.org/1999/xlink">
    <!-- Generator: Sketch 52.6 (67491) - http://www.bohemiancoding.com/sketch -->
    <title>icon / icon-notice</title>
    <desc>Created with Sketch.</desc>
    <defs>
        <path d="M16.3636364,13.0470729 L16.3636364,9.18281406 C16.3636363,6.62180862 14.4099698,4.54570353 12,4.54570353 C9.59003021,4.54570353 7.63636367,6.62180862 7.63636364,9.18281405 L7.63636364,13.0470729 C7.63636364,13.6101528 7.49469922,14.1380716 7.24717907,14.5927764 L16.7528209,14.5927764 C16.5053008,14.1380716 16.3636364,13.6101528 16.3636364,13.0470729 Z M19.2727273,16.1384799 L4.72727273,16.1384799 C3.75757576,16.1384799 3.75757576,14.5927764 4.72727273,14.5927764 C5.530596,14.5927764 6.18181818,13.9007414 6.18181818,13.0470729 L6.18181818,9.18281404 C6.18181823,5.76814012 8.78670694,3 12,3 C15.2132931,3 17.8181818,5.76814012 17.8181818,9.18281405 L17.8181818,13.0470729 C17.8181818,13.9007414 18.469404,14.5927764 19.2727273,14.5927764 C20.2424242,14.5927764 20.2424242,16.1384799 19.2727273,16.1384799 Z M13.8872727,18.8448305 C13.4969479,19.559878 12.777893,20 12,20 C11.222107,20 10.5030521,19.559878 10.1127273,18.8448305 C9.83147576,18.3295976 10.1813015,17.6841835 10.7418182,17.6841835 L13.2581818,17.6841835 C13.8186985,17.6841835 14.1685242,18.3295976 13.8872727,18.8448305 Z" id="path-1"></path>
    </defs>
    <g id="icon-/-icon-notice" stroke="none" stroke-width="1" fill="none" fill-rule="evenodd">
        <mask id="mask-2" fill="white">
            <use xlink:href="#path-1"></use>
        </mask>
        <use id="Shape" fill="#333333" fill-rule="nonzero" xlink:href="#path-1"></use>
    </g>
</svg>