<?xml version="1.0" encoding="UTF-8"?>
<svg width="24px" height="24px" viewBox="0 0 24 24" version="1.1" xmlns="http://www.w3.org/2000/svg" xmlns:xlink="http://www.w3.org/1999/xlink">
    <!-- Generator: Sketch 52.6 (67491) - http://www.bohemiancoding.com/sketch -->
    <title>icon / icon-planning</title>
    <desc>Created with Sketch.</desc>
    <defs>
        <path d="M5.25,14.2499996 L5.25,5.25 C5.25,5.05108763 5.32901763,4.8603222 5.46966991,4.71966991 C5.63435259,4.55498723 5.93061382,4.35747975 6.37770699,4.17864248 C7.05481868,3.90779781 7.92270662,3.75 9,3.75 C10.0624226,3.75 10.7869724,3.95701424 12.278543,4.55364248 C13.5994724,5.08201424 14.1874226,5.25 15,5.25 C15.8914566,5.25 16.5704437,5.12654781 17.065207,4.92864248 C17.3212388,4.82622975 17.4468526,4.74248723 17.4696699,4.71966991 C17.9421436,4.24719627 18.75,4.58182136 18.75,5.25 L18.75,14.25 C18.75,14.4489124 18.6709824,14.6396778 18.5303301,14.7803301 C18.3656474,14.9450128 18.0693862,15.1425202 17.622293,15.3213575 C16.9451813,15.5922022 16.0772934,15.75 15,15.75 C13.9375774,15.75 13.2130276,15.5429858 11.721457,14.9463575 C10.4005276,14.4179858 9.81257744,14.25 9,14.25 C8.10854338,14.25 7.42955632,14.3734522 6.93479301,14.5713575 C6.86319891,14.5999952 6.80180255,14.6271729 6.75,14.6519669 L6.75,19.5 C6.75,19.9142136 6.41421356,20.25 6,20.25 C5.58578644,20.25 5.25,19.9142136 5.25,19.5 L5.25,14.25 Z M9,12.75 C10.0624226,12.75 10.7869724,12.9570142 12.278543,13.5536425 C13.5994724,14.0820142 14.1874226,14.25 15,14.25 C15.8914566,14.25 16.5704437,14.1265478 17.065207,13.9286425 C17.1368011,13.9000048 17.1981974,13.8728271 17.25,13.8480331 L17.25,6.45267225 C16.6356702,6.64250347 15.8891617,6.75 15,6.75 C13.9375774,6.75 13.2130276,6.54298576 11.721457,5.94635752 C10.4005276,5.41798576 9.81257744,5.25 9,5.25 C8.10854338,5.25 7.42955632,5.37345219 6.93479301,5.57135752 C6.86319891,5.59999516 6.80180255,5.62717292 6.75,5.65196691 L6.75,13.0473278 C7.36432984,12.8574965 8.11083833,12.75 9,12.75 Z" id="path-1"></path>
    </defs>
    <g id="icon-/-icon-planning" stroke="none" stroke-width="1" fill="none" fill-rule="evenodd">
        <mask id="mask-2" fill="white">
            <use xlink:href="#path-1"></use>
        </mask>
        <use id="Combined-Shape" fill="#333333" fill-rule="nonzero" xlink:href="#path-1"></use>
    </g>
</svg>