<?xml version="1.0" encoding="UTF-8"?>
<svg width="24px" height="24px" viewBox="0 0 24 24" version="1.1" xmlns="http://www.w3.org/2000/svg" xmlns:xlink="http://www.w3.org/1999/xlink">
    <!-- Generator: Sketch 52.6 (67491) - http://www.bohemiancoding.com/sketch -->
    <title>icon / icon-karte</title>
    <desc>Created with Sketch.</desc>
    <defs>
        <path d="M15.75,5.25 L16.5,5.25 C17.7426407,5.25 18.75,6.25735931 18.75,7.5 L18.75,18 C18.75,19.2426407 17.7426407,20.25 16.5,20.25 L7.5,20.25 C6.25735931,20.25 5.25,19.2426407 5.25,18 L5.25,7.5 C5.25,6.25735931 6.25735931,5.25 7.5,5.25 L8.25,5.25 C8.25,4.42157288 8.92157288,3.75 9.75,3.75 L14.25,3.75 C15.0784271,3.75 15.75,4.42157288 15.75,5.25 Z M8.25,6.75 L7.5,6.75 C7.08578644,6.75 6.75,7.08578644 6.75,7.5 L6.75,18 C6.75,18.4142136 7.08578644,18.75 7.5,18.75 L16.5,18.75 C16.9142136,18.75 17.25,18.4142136 17.25,18 L17.25,7.5 C17.25,7.08578644 16.9142136,6.75 16.5,6.75 L15.75,6.75 C15.75,7.57842712 15.0784271,8.25 14.25,8.25 L9.75,8.25 C8.92157288,8.25 8.25,7.57842712 8.25,6.75 Z M9.75,5.25 L9.75,6.75 L14.25,6.75 L14.25,5.25 L9.75,5.25 Z" id="path-1"></path>
    </defs>
    <g id="icon-/-icon-karte" stroke="none" stroke-width="1" fill="none" fill-rule="evenodd">
        <mask id="mask-2" fill="white">
            <use xlink:href="#path-1"></use>
        </mask>
        <use id="Combined-Shape" fill="#333333" fill-rule="nonzero" xlink:href="#path-1"></use>
    </g>
</svg>