<?xml version="1.0" encoding="UTF-8"?>
<svg width="24px" height="24px" viewBox="0 0 24 24" version="1.1" xmlns="http://www.w3.org/2000/svg" xmlns:xlink="http://www.w3.org/1999/xlink">
    <!-- Generator: Sketch 52.6 (67491) - http://www.bohemiancoding.com/sketch -->
    <title>icon / icon-batch</title>
    <desc>Created with Sketch.</desc>
    <defs>
        <path d="M11.6747602,4.0767787 C11.8795034,3.9744071 12.1204966,3.9744071 12.3252398,4.0767787 L19.5978222,7.71306992 C20.1338468,7.98108223 20.1338468,8.7460167 19.5978222,9.01402902 L12.3252398,12.6503202 C12.1204966,12.7526918 11.8795034,12.7526918 11.6747602,12.6503202 L4.40217778,9.01402902 C3.86615315,8.7460167 3.86615315,7.98108223 4.40217778,7.71306992 L11.6747602,4.0767787 Z M12,5.54035768 L6.35361643,8.36354947 L12,11.1867413 L17.6463836,8.36354947 L12,5.54035768 Z M5.05265733,14.9856524 L12,18.4593237 L18.9473427,14.9856524 C19.3065926,14.8060274 19.743437,14.9516422 19.923062,15.3108921 C20.102687,15.6701421 19.9570722,16.1069865 19.5978222,16.2866115 L12.3252398,19.9229027 C12.1204966,20.0252743 11.8795034,20.0252743 11.6747602,19.9229027 L4.40217778,16.2866115 C4.04292785,16.1069865 3.89731304,15.6701421 4.07693801,15.3108921 C4.25656297,14.9516422 4.69340739,14.8060274 5.05265733,14.9856524 Z M5.05265733,11.3493611 L12,14.8230325 L18.9473427,11.3493611 C19.3065926,11.1697362 19.743437,11.315351 19.923062,11.6746009 C20.102687,12.0338508 19.9570722,12.4706953 19.5978222,12.6503202 L12.3252398,16.2866115 C12.1204966,16.3889831 11.8795034,16.3889831 11.6747602,16.2866115 L4.40217778,12.6503202 C4.04292785,12.4706953 3.89731304,12.0338508 4.07693801,11.6746009 C4.25656297,11.315351 4.69340739,11.1697362 5.05265733,11.3493611 Z" id="path-1"></path>
    </defs>
    <g id="icon-/-icon-batch" stroke="none" stroke-width="1" fill="none" fill-rule="evenodd">
        <mask id="mask-2" fill="white">
            <use xlink:href="#path-1"></use>
        </mask>
        <use id="Combined-Shape" fill="#333333" fill-rule="nonzero" xlink:href="#path-1"></use>
    </g>
</svg>