<?xml version="1.0" encoding="UTF-8"?>
<svg width="24px" height="24px" viewBox="0 0 24 24" version="1.1" xmlns="http://www.w3.org/2000/svg" xmlns:xlink="http://www.w3.org/1999/xlink">
    <!-- Generator: Sketch 52.6 (67491) - http://www.bohemiancoding.com/sketch -->
    <title>icon / icon-line-stop</title>
    <desc>Created with Sketch.</desc>
    <g id="icon-/-icon-line-stop" stroke="none" stroke-width="1" fill="none" fill-rule="evenodd">
        <path d="M10.6651109,6.19369895 L10.6651109,4.24270712 C9.91831972,4.43873979 9.21820303,4.74679113 8.58343057,5.13885648 L9.94632439,6.50175029 C10.1796966,6.38973162 10.4130688,6.27771295 10.6651109,6.19369895 Z M4,5.31621937 L6.20303384,7.51925321 C5.48424737,8.65810968 5.06417736,10.0116686 5.06417736,11.4679113 C5.06417736,13.5309218 5.91365228,15.3885648 7.2672112,16.7327888 L5.06417736,18.9358226 L10.6651109,18.9358226 L10.6651109,13.3348891 L8.57409568,15.4259043 C7.56592765,14.4084014 6.93115519,13.0175029 6.93115519,11.4679113 C6.93115519,10.5344224 7.16452742,9.65694282 7.56592765,8.88214702 L15.1085181,16.4247375 C14.8751459,16.546091 14.6417736,16.6581097 14.3897316,16.7421237 L14.3897316,18.6931155 C15.1365228,18.4970828 15.8366394,18.1890315 16.4714119,17.7969662 L18.6744457,20 L19.8599767,18.8144691 L5.19486581,4.13068845 L4,5.31621937 Z M20,4 L14.3990665,4 L14.3990665,9.60093349 L16.4900817,7.50991832 C17.4982497,8.52742124 18.1330222,9.91831972 18.1330222,11.4679113 C18.1330222,12.4014002 17.8996499,13.2788798 17.4982497,14.0536756 L18.8611435,15.4165694 C19.57993,14.277713 20,12.924154 20,11.4679113 C20,9.40490082 19.1505251,7.54725788 17.7969662,6.20303384 L20,4 Z" id="Shape" fill="#333333" fill-rule="nonzero"></path>
    </g>
</svg>