<?xml version="1.0" encoding="UTF-8"?>
<svg width="24px" height="24px" viewBox="0 0 24 24" version="1.1" xmlns="http://www.w3.org/2000/svg" xmlns:xlink="http://www.w3.org/1999/xlink">
    <!-- Generator: Sketch 52.6 (67491) - http://www.bohemiancoding.com/sketch -->
    <title>icon / icon-home</title>
    <desc>Created with Sketch.</desc>
    <g id="icon-/-icon-home" stroke="none" stroke-width="1" fill="none" fill-rule="evenodd">
        <path d="M10.6666667,7 C10.2984768,7 10,6.55228475 10,6 C10,5.44771525 10.2984768,5 10.6666667,5 L19.3333333,5 C19.7015232,5 20,5.44771525 20,6 C20,6.55228475 19.7015232,7 19.3333333,7 L10.6666667,7 Z M10.6666667,13 C10.2984768,13 10,12.5522847 10,12 C10,11.4477153 10.2984768,11 10.6666667,11 L19.3333333,11 C19.7015232,11 20,11.4477153 20,12 C20,12.5522847 19.7015232,13 19.3333333,13 L10.6666667,13 Z M10.6666667,19 C10.2984768,19 10,18.5522847 10,18 C10,17.4477153 10.2984768,17 10.6666667,17 L19.3333333,17 C19.7015232,17 20,17.4477153 20,18 C20,18.5522847 19.7015232,19 19.3333333,19 L10.6666667,19 Z M6.5,7.5 C5.675,7.5 5,6.825 5,6 C5,5.175 5.675,4.5 6.5,4.5 C7.325,4.5 8,5.175 8,6 C8,6.825 7.325,7.5 6.5,7.5 Z M6.5,10.5 C7.325,10.5 8,11.175 8,12 C8,12.825 7.325,13.5 6.5,13.5 C5.675,13.5 5,12.825 5,12 C5,11.175 5.675,10.5 6.5,10.5 Z M6.5,16.5 C7.325,16.5 8,17.175 8,18 C8,18.825 7.325,19.5 6.5,19.5 C5.675,19.5 5,18.825 5,18 C5,17.175 5.675,16.5 6.5,16.5 Z" id="Combined-Shape" fill="#333333" fill-rule="nonzero"></path>
    </g>
</svg>