<?xml version="1.0" encoding="UTF-8"?>
<svg width="24px" height="24px" viewBox="0 0 24 24" version="1.1" xmlns="http://www.w3.org/2000/svg" xmlns:xlink="http://www.w3.org/1999/xlink">
    <title>704847F6-A283-444A-8FC0-BBC835589CE4@1x</title>
    <g id="🔄-Symbols---Icon" stroke="none" stroke-width="1" fill="none" fill-rule="evenodd">
        <g id="icon-/-icon-content-list" fill="#333333" fill-rule="nonzero">
            <path d="M15.6557985,12.25 C17.5857985,12.25 19.1557985,13.82 19.1557985,15.75 C19.1557985,16.44 18.9457985,17.09 18.5957985,17.63 L18.5957985,17.63 L20.6557985,19.69 L19.5957985,20.75 L17.5357985,18.69 C16.9957985,19.04 16.3457985,19.25 15.6557985,19.25 C13.7257985,19.25 12.1557985,17.68 12.1557985,15.75 C12.1557985,13.82 13.7257985,12.25 15.6557985,12.25 Z M11.6557985,3.25 C12.5857985,3.25 13.3657985,3.89 13.5857985,4.75 L13.5857985,4.75 L17.1557985,4.75 C17.9857985,4.75 18.6557985,5.42 18.6557985,6.25 L18.6557985,6.25 L18.6557985,10.75 L17.1557985,10.75 L17.1557985,6.25 L15.6557985,6.25 L15.6557985,8.75 L7.65579848,8.75 L7.65579848,6.25 L6.15579848,6.25 L6.15579848,17.25 L10.6557985,17.25 L10.6557985,18.75 L6.15579848,18.75 C5.32579848,18.75 4.65579848,18.08 4.65579848,17.25 L4.65579848,17.25 L4.65579848,6.25 C4.65579848,5.42 5.32579848,4.75 6.15579848,4.75 L6.15579848,4.75 L9.72579848,4.75 C9.94579848,3.89 10.7257985,3.25 11.6557985,3.25 Z M15.6557985,13.75 C14.8657985,13.75 14.1757985,14.21 13.8557985,14.88 C13.7257985,15.14 13.6557985,15.44 13.6557985,15.75 C13.6557985,16.85 14.5557985,17.75 15.6557985,17.75 C16.7557985,17.75 17.6557985,16.85 17.6557985,15.75 C17.6557985,14.65 16.7557985,13.75 15.6557985,13.75 Z M11.6557985,4.75 C11.2457985,4.75 10.9057985,5.08 10.9057985,5.5 C10.9057985,5.91 11.2457985,6.25 11.6557985,6.25 C12.0657985,6.25 12.4057985,5.91 12.4057985,5.5 C12.4057985,5.08 12.0657985,4.75 11.6557985,4.75 Z" id="Combined-Shape"></path>
        </g>
    </g>
</svg>