<?xml version="1.0" encoding="UTF-8"?>
<svg width="24px" height="24px" viewBox="0 0 24 24" version="1.1" xmlns="http://www.w3.org/2000/svg" xmlns:xlink="http://www.w3.org/1999/xlink">
    <!-- Generator: Sketch 52.6 (67491) - http://www.bohemiancoding.com/sketch -->
    <title>icon / icon-memo</title>
    <desc>Created with Sketch.</desc>
    <defs>
        <path d="M13.4444444,4.05555556 C13.6359897,4.05555556 13.8196897,4.13164661 13.9551327,4.26708955 L18.288466,8.60042288 C18.4239089,8.73586582 18.5,8.91956587 18.5,9.11111111 L18.5,17.7777778 C18.5,18.9743947 17.5299503,19.9444444 16.3333333,19.9444444 L7.66666667,19.9444444 C6.47004971,19.9444444 5.5,18.9743947 5.5,17.7777778 L5.5,6.22222222 C5.5,5.02560526 6.47004971,4.05555556 7.66666667,4.05555556 L13.4444444,4.05555556 Z M13.1452902,5.5 L7.66666667,5.5 C7.26779435,5.5 6.94444444,5.8233499 6.94444444,6.22222222 L6.94444444,17.7777778 C6.94444444,18.1766501 7.26779435,18.5 7.66666667,18.5 L16.3333333,18.5 C16.7322057,18.5 17.0555556,18.1766501 17.0555556,17.7777778 L17.0555556,9.41026535 L13.1452902,5.5 Z M14.1666667,4.77777778 L14.1666667,8.38888889 L17.7777778,8.38888889 C18.1766501,8.38888889 18.5,8.71223879 18.5,9.11111111 C18.5,9.50998343 18.1766501,9.83333333 17.7777778,9.83333333 L13.4444444,9.83333333 C13.0455721,9.83333333 12.7222222,9.50998343 12.7222222,9.11111111 L12.7222222,4.77777778 C12.7222222,4.37890546 13.0455721,4.05555556 13.4444444,4.05555556 C13.8433168,4.05555556 14.1666667,4.37890546 14.1666667,4.77777778 Z M14.8888889,12 C15.2877612,12 15.6111111,12.3233499 15.6111111,12.7222222 C15.6111111,13.1210945 15.2877612,13.4444444 14.8888889,13.4444444 L9.11111111,13.4444444 C8.71223879,13.4444444 8.38888889,13.1210945 8.38888889,12.7222222 C8.38888889,12.3233499 8.71223879,12 9.11111111,12 L14.8888889,12 Z M14.8888889,14.8888889 C15.2877612,14.8888889 15.6111111,15.2122388 15.6111111,15.6111111 C15.6111111,16.0099834 15.2877612,16.3333333 14.8888889,16.3333333 L9.11111111,16.3333333 C8.71223879,16.3333333 8.38888889,16.0099834 8.38888889,15.6111111 C8.38888889,15.2122388 8.71223879,14.8888889 9.11111111,14.8888889 L14.8888889,14.8888889 Z M10.5555556,9.11111111 C10.9544279,9.11111111 11.2777778,9.43446101 11.2777778,9.83333333 C11.2777778,10.2322057 10.9544279,10.5555556 10.5555556,10.5555556 L9.11111111,10.5555556 C8.71223879,10.5555556 8.38888889,10.2322057 8.38888889,9.83333333 C8.38888889,9.43446101 8.71223879,9.11111111 9.11111111,9.11111111 L10.5555556,9.11111111 Z" id="path-1"></path>
    </defs>
    <g id="icon-/-icon-memo" stroke="none" stroke-width="1" fill="none" fill-rule="evenodd">
        <mask id="mask-2" fill="white">
            <use xlink:href="#path-1"></use>
        </mask>
        <use id="Combined-Shape" fill="#333333" fill-rule="nonzero" xlink:href="#path-1"></use>
    </g>
</svg>