<?xml version="1.0" encoding="UTF-8"?>
<svg width="36px" height="36px" viewBox="0 0 36 36" version="1.1" xmlns="http://www.w3.org/2000/svg" xmlns:xlink="http://www.w3.org/1999/xlink">
    <!-- Generator: Sketch 52.1 (67048) - http://www.bohemiancoding.com/sketch -->
    <title>icon / icon-account</title>
    <desc>Created with Sketch.</desc>
    <g id="icon-/-icon-account" stroke="none" stroke-width="1" fill="none" fill-rule="evenodd">
        <path d="M18,36 C8.0588745,36 0,27.9411255 0,18 C0,8.0588745 8.0588745,0 18,0 C27.9411255,0 36,8.0588745 36,18 C36,27.9411255 27.9411255,36 18,36 Z M18,17 C16.2352,17 14.8,15.5648 14.8,13.8 C14.8,12.0352 16.2352,10.6 18,10.6 C19.7648,10.6 21.2,12.0352 21.2,13.8 C21.2,15.5648 19.7648,17 18,17 Z M21.0064,17.5384 C22.0992,16.6592 22.8,15.312 22.8,13.8 C22.8,11.1488 20.6512,9 18,9 C15.3488,9 13.2,11.1488 13.2,13.8 C13.2,15.312 13.9008,16.6592 14.9936,17.5384 C12.0664,18.6384 10,21.356 10,25 L11.6,25 C11.6,21 14.4712,18.6 18,18.6 C21.5288,18.6 24.4,21 24.4,25 L26,25 C26,21.356 23.9336,18.6384 21.0064,17.5384 Z" id="Combined-Shape" fill="#333333" fill-rule="nonzero"></path>
    </g>
</svg>